<svg xmlns="http://www.w3.org/2000/svg" xmlns:xlink="http://www.w3.org/1999/xlink" xmlns:lucid="lucid" width="801" height="498"><g transform="translate(-2098 -1186)" lucid:page-tab-id="0_0"><path d="M2320.78 1318.83c0 51.9-42.1 94-94 94-51.92 0-94-42.1-94-94 0-51.92 42.08-94 94-94 51.9 0 94 42.08 94 94z" stroke="#8babc7" stroke-width="2" fill="#deebf7"/><use xlink:href="#a" transform="matrix(1,0,0,1,2137.7746416179853,1229.8278502958817) translate(31.3888888888889 98.75)"/><path d="M2852.55 1318.83c0 51.9-42.08 94-94 94-51.9 0-94-42.1-94-94 0-51.92 42.1-94 94-94 51.92 0 94 42.08 94 94z" stroke="#8babc7" stroke-width="2" fill="#deebf7"/><use xlink:href="#b" transform="matrix(1,0,0,1,2669.5524193958013,1229.8278502958817) translate(59.06055555555555 70.9375)"/><use xlink:href="#c" transform="matrix(1,0,0,1,2669.5524193958013,1229.8278502958817) translate(28.06055555555556 118.9375)"/><path d="M2322.78 1318.83h322.27" stroke="#5e5e5e" stroke-width="2" fill="none"/><path d="M2322.8 1319.8h-1.05l.03-.97-.02-.98h1.04z" stroke="#5e5e5e" stroke-width=".05" fill="#5e5e5e"/><path d="M2660.32 1318.83l-14.27 4.63v-9.27z" stroke="#5e5e5e" stroke-width="2" fill="#5e5e5e"/><use xlink:href="#d" transform="matrix(1,0,0,1,2449.083283593313,1293.4945169625482) translate(0.005000000000002558 14.222222222222223)"/><use xlink:href="#e" transform="matrix(1,0,0,1,2449.083283593313,1293.4945169625482) translate(72.40006172839509 14.222222222222223)"/><path d="M2852.55 1556.67c0 51.9-42.08 94-94 94-51.9 0-94-42.1-94-94 0-51.92 42.1-94 94-94 51.92 0 94 42.08 94 94z" stroke="#8babc7" stroke-width="2" fill="#deebf7"/><use xlink:href="#f" transform="matrix(1,0,0,1,2669.5524193958013,1467.6666666666665) translate(13.671666666666662 70.9375)"/><use xlink:href="#g" transform="matrix(1,0,0,1,2669.5524193958013,1467.6666666666665) translate(17.449444444444445 118.9375)"/><use xlink:href="#h" transform="matrix(1,0,0,1,2669.5524193958013,1467.6666666666665) translate(76.22722222222222 118.9375)"/><path d="M2314.42 1358.03l340.5 152.3" stroke="#5e5e5e" stroke-width="2" fill="none"/><path d="M2314.84 1357.15l-.8 1.78-.94-.42.25-.5.54-1.28z" stroke="#5e5e5e" stroke-width=".05" fill="#5e5e5e"/><path d="M2668.86 1516.55l-14.9-1.6 3.77-8.45z" stroke="#5e5e5e" stroke-width="2" fill="#5e5e5e"/><g><path d="M2392.72 1345.96a6 6 0 0 1 7.92-3.05l208.4 92.52a6 6 0 0 1 3.04 7.9l-19.47 43.9a6 6 0 0 1-7.9 3.04l-208.4-92.5a6 6 0 0 1-3.05-7.93z" fill="none"/></g><g><use xlink:href="#i" transform="matrix(0.9139978864692907,0.4057189464760916,-0.4057189464760916,0.9139978864692907,2395.155352524861,1340.4774052186258) translate(69.25925925925925 33.55555555555556)"/><use xlink:href="#j" transform="matrix(0.9139978864692907,0.4057189464760916,-0.4057189464760916,0.9139978864692907,2395.155352524861,1340.4774052186258) translate(113.11111111111111 33.55555555555556)"/><use xlink:href="#k" transform="matrix(0.9139978864692907,0.4057189464760916,-0.4057189464760916,0.9139978864692907,2395.155352524861,1340.4774052186258) translate(132.320987654321 33.55555555555556)"/></g><defs><path d="M52-115c0 90 69 126 140 93v-67l-30-5v-9h87v9l-23 5v77c-27 8-56 16-90 16C59 2 15-37 15-115c-1-82 41-123 122-123 31 0 59 4 83 10v51h-12l-5-29c-15-12-38-18-65-18-66-1-86 42-86 109" id="l"/><path d="M90-170c52 0 76 32 76 87 0 54-24 87-77 87-51 0-75-34-75-87 0-54 24-87 76-87zM89-10c39 0 46-35 46-73 0-39-7-73-46-73-39 1-44 34-44 73s6 72 44 73" id="m"/><path d="M84-170c49 0 66 33 63 87H46c-8 60 38 80 95 63v10C128-2 108 4 88 4 34 4 14-29 14-84c-1-54 22-86 70-86zm33 73c12-57-57-82-69-24-1 7-2 15-2 24h71" id="n"/><path d="M54-38c-1 25 24 26 44 20v12C71 10 25 9 25-35v-115H4c-2-14 14-10 21-15l18-38h11v38h38v15H54v112" id="o"/><path d="M126-119c3-38-42-31-69-25v132l23 4v8H7v-8l21-4v-226l-24-4v-8h53l-1 98c31-22 99-31 99 31v109c7 3 23-1 20 12h-71v-8l22-4v-107" id="p"/><g id="a"><use transform="matrix(0.1111111111111111,0,0,0.1111111111111111,0,0)" xlink:href="#l"/><use transform="matrix(0.1111111111111111,0,0,0.1111111111111111,28.777777777777775,0)" xlink:href="#m"/><use transform="matrix(0.1111111111111111,0,0,0.1111111111111111,48.77777777777777,0)" xlink:href="#n"/><use transform="matrix(0.1111111111111111,0,0,0.1111111111111111,66.44444444444443,0)" xlink:href="#o"/><use transform="matrix(0.1111111111111111,0,0,0.1111111111111111,77.55555555555554,0)" xlink:href="#p"/><use transform="matrix(0.1111111111111111,0,0,0.1111111111111111,97.55555555555554,0)" xlink:href="#n"/></g><path d="M134-16c44-1 70-21 70-64v-142l-32-4v-10h80v10l-30 4v141c0 57-33 84-91 85-58 0-93-26-93-82v-144l-30-4v-10h94v10l-30 4c7 82-31 209 62 206" id="q"/><path d="M125-118c4-37-41-34-68-26v132l23 4v8H8C5-13 21-9 28-12v-141c-7-3-23 1-20-12h47l2 13c31-23 98-29 98 31v109c7 3 23-1 20 12h-72v-8l22-4v-106" id="r"/><path d="M47-200c-23 0-25-39 0-38 13 0 18 7 20 19-1 11-8 19-20 19zM65-12l28 4v8H8v-8l28-4v-141l-24-4v-8h53v153" id="s"/><g id="b"><use transform="matrix(0.1111111111111111,0,0,0.1111111111111111,0,0)" xlink:href="#q"/><use transform="matrix(0.1111111111111111,0,0,0.1111111111111111,28.777777777777775,0)" xlink:href="#r"/><use transform="matrix(0.1111111111111111,0,0,0.1111111111111111,48.77777777777777,0)" xlink:href="#s"/></g><path d="M111-226l-36 4v207c33-1 73 2 101-4l11-49h11l-3 68H10v-9l31-5v-208l-31-4v-10h101v10" id="t"/><path d="M166-85c3 67-44 102-111 85l1 64 29 4v9H6v-9l21-4v-217c-7-3-22 1-19-12h46l1 9c11-8 26-14 45-14 47 2 64 36 66 85zM56-13c53 14 83-14 78-72 7-53-33-79-78-60v132" id="u"/><path d="M10 0v-8l90-143c-23 2-54-4-70 6-5 8 1 26-14 24v-44h122v8L47-14c29-2 65 3 86-8l9-35h8l-5 57H10" id="v"/><path d="M141-152c28 39 5 97-54 97-9 0-20-2-27-3L49-35c29 22 130-14 124 52-4 45-38 57-88 61C21 83-8 26 45-2 33-6 22-15 21-31l28-31c-19-9-28-26-28-51-2-51 53-65 100-52l38-20 7 8zM85 64c35 0 61-11 61-42 0-35-57-17-89-21-9 8-16 19-17 34 0 25 19 29 45 29zM52-113c1 26 7 46 35 44 28-1 34-16 35-44 0-26-6-43-34-43s-36 17-36 43" id="w"/><g id="c"><use transform="matrix(0.1111111111111111,0,0,0.1111111111111111,0,0)" xlink:href="#t"/><use transform="matrix(0.1111111111111111,0,0,0.1111111111111111,24.333333333333332,0)" xlink:href="#n"/><use transform="matrix(0.1111111111111111,0,0,0.1111111111111111,42,0)" xlink:href="#s"/><use transform="matrix(0.1111111111111111,0,0,0.1111111111111111,53.111111111111114,0)" xlink:href="#u"/><use transform="matrix(0.1111111111111111,0,0,0.1111111111111111,73.11111111111111,0)" xlink:href="#v"/><use transform="matrix(0.1111111111111111,0,0,0.1111111111111111,90.77777777777777,0)" xlink:href="#s"/><use transform="matrix(0.1111111111111111,0,0,0.1111111111111111,101.88888888888889,0)" xlink:href="#w"/></g><path d="M12-83c0-55 22-85 75-86 52-1 66 33 63 88H64c-1 37 6 64 44 63 14 0 28-4 39-6 3 28-28 25-55 27-57 4-80-31-80-86zm90-17c2-26 0-63-27-48-10 9-11 28-11 48h38" id="x"/><path d="M15-82c-4-69 47-101 113-83l-1-69-17-4v-12h68v234l18 4V0h-63l-4-9C77 23 5-9 15-82zm112-66c-43-16-64 17-61 65 2 33 3 67 32 67 12 0 22-3 29-8v-124" id="y"/><path d="M73-51c-3 31 27 38 51 25v-123l-16-5v-11h66v149l17 4V0h-65l-2-14C94 9 22 18 22-44v-105l-17-5v-11h68v114" id="z"/><path d="M109-18c15 0 31-2 42-6v14c-11 9-31 13-51 13-59 0-86-28-88-86-3-75 66-101 135-80v48h-13c-3-20-7-40-34-37-51 7-55 138 9 134" id="A"/><path d="M31-163c51-5 127-20 127 40v107l17 4V0h-61l-4-13C82 13 12 12 12-46c0-51 46-52 95-53 9-45-22-69-57-44l-7 20H31v-40zM62-47c0 30 26 34 45 23v-59c-28 0-45 6-45 36" id="B"/><path d="M78-41c-2 24 21 26 40 20C122 3 98 2 77 4 5 10 32-84 27-147H6v-11l25-7 21-38h26v38h35v18H78v106" id="C"/><g id="d"><use transform="matrix(0.04938271604938272,0,0,0.04938271604938272,0,0)" xlink:href="#x"/><use transform="matrix(0.04938271604938272,0,0,0.04938271604938272,7.851851851851852,0)" xlink:href="#y"/><use transform="matrix(0.04938271604938272,0,0,0.04938271604938272,17.728395061728396,0)" xlink:href="#z"/><use transform="matrix(0.04938271604938272,0,0,0.04938271604938272,27.60493827160494,0)" xlink:href="#A"/><use transform="matrix(0.04938271604938272,0,0,0.04938271604938272,35.45679012345679,0)" xlink:href="#B"/><use transform="matrix(0.04938271604938272,0,0,0.04938271604938272,44.345679012345684,0)" xlink:href="#C"/><use transform="matrix(0.04938271604938272,0,0,0.04938271604938272,50.22222222222223,0)" xlink:href="#x"/><use transform="matrix(0.04938271604938272,0,0,0.04938271604938272,58.074074074074076,0)" xlink:href="#y"/></g><g id="e"><use transform="matrix(0.04938271604938272,0,0,0.04938271604938272,0,0)" xlink:href="#B"/><use transform="matrix(0.04938271604938272,0,0,0.04938271604938272,8.88888888888889,0)" xlink:href="#C"/></g><path d="M75-106v92l39 5v9H13v-9l28-5v-208l-31-4v-10h177v57h-11l-6-38c-28-4-63-3-95-3v98h69l5-28h11v73h-11l-5-29H75" id="D"/><path d="M57-145c16-10 35-24 60-25v45c-19 1-8-30-40-17l-20 6v124l29 4v8H7v-8l21-4v-141c-8-3-24 2-21-12h48" id="E"/><path d="M32-163c41-10 102-14 102 39v112c8 3 24-2 21 12h-45l-4-17C83 13 3 13 13-46c-2-50 45-50 92-51 4-36-5-70-42-56-6 2-12 4-16 6-4 7 0 23-15 20v-36zM42-47c0 41 41 33 63 22v-59c-34 1-63-1-63 37" id="F"/><path d="M60-80l68-73c-7-3-20 0-17-12h58c3 13-13 9-20 12l-47 48 60 93c7 3 21-1 18 12h-68c-3-12 9-9 15-12L82-83 60-60v48c7 3 21-1 18 12H10v-8l21-4v-226l-24-4v-8h53v170" id="G"/><path d="M103-236c-39-15-35 32-34 71h44v15H69v136l35 6v8H15v-8l25-6v-136H11v-9l29-7c-6-59 23-100 80-84v36c-15 2-12-14-17-22" id="H"/><path d="M124-13C89 8 26 15 26-45v-108c-8-3-24 2-21-12h50v118c-3 37 42 32 69 25v-131l-25-4v-8h54v153c8 3 24-2 21 12h-48" id="I"/><g id="f"><use transform="matrix(0.1111111111111111,0,0,0.1111111111111111,0,0)" xlink:href="#D"/><use transform="matrix(0.1111111111111111,0,0,0.1111111111111111,22.22222222222222,0)" xlink:href="#E"/><use transform="matrix(0.1111111111111111,0,0,0.1111111111111111,35.44444444444444,0)" xlink:href="#F"/><use transform="matrix(0.1111111111111111,0,0,0.1111111111111111,53.11111111111111,0)" xlink:href="#r"/><use transform="matrix(0.1111111111111111,0,0,0.1111111111111111,73.11111111111111,0)" xlink:href="#G"/><use transform="matrix(0.1111111111111111,0,0,0.1111111111111111,93.11111111111111,0)" xlink:href="#H"/><use transform="matrix(0.1111111111111111,0,0,0.1111111111111111,106.33333333333334,0)" xlink:href="#I"/><use transform="matrix(0.1111111111111111,0,0,0.1111111111111111,126.33333333333336,0)" xlink:href="#E"/><use transform="matrix(0.1111111111111111,0,0,0.1111111111111111,139.55555555555557,0)" xlink:href="#o"/></g><path d="M126-118c4-37-42-32-68-25v131l24 4v8H8C5-13 21-9 28-12v-141c-7-3-23 1-20-12h48l1 13c22-15 77-30 92 2 32-22 104-36 104 29v109c8 3 24-2 21 12h-75v-8l25-4v-106c3-39-45-31-72-24 7 37 1 88 3 130l25 4v8h-78v-8l24-4v-106" id="J"/><g id="g"><use transform="matrix(0.1111111111111111,0,0,0.1111111111111111,0,0)" xlink:href="#F"/><use transform="matrix(0.1111111111111111,0,0,0.1111111111111111,17.666666666666664,0)" xlink:href="#J"/></g><path d="M152 0h-7L59-203v189l32 5v9H10v-9l31-5v-208l-31-4v-10h72l76 180 84-180h68v10l-31 4v208l31 5v9h-96v-9l32-5v-189" id="K"/><g id="h"><use transform="matrix(0.1111111111111111,0,0,0.1111111111111111,0,0)" xlink:href="#K"/><use transform="matrix(0.1111111111111111,0,0,0.1111111111111111,35.55555555555556,0)" xlink:href="#F"/><use transform="matrix(0.1111111111111111,0,0,0.1111111111111111,53.22222222222222,0)" xlink:href="#s"/><use transform="matrix(0.1111111111111111,0,0,0.1111111111111111,64.33333333333333,0)" xlink:href="#r"/></g><path d="M186-86c2 69-46 103-114 85l1 62 25 4v12H5V65l18-4v-210l-18-5v-11h67v8c12-8 26-13 46-13 49 2 67 30 68 84zm-83 71c28 0 31-33 31-69 0-34-2-66-30-66-12 0-23 3-31 7v124c9 2 20 4 30 4" id="L"/><path d="M76-16l18 4V0H7v-12l18-4v-218l-17-4v-12h68v234" id="M"/><g id="i"><use transform="matrix(0.04938271604938272,0,0,0.04938271604938272,0,0)" xlink:href="#L"/><use transform="matrix(0.04938271604938272,0,0,0.04938271604938272,9.876543209876544,0)" xlink:href="#M"/><use transform="matrix(0.04938271604938272,0,0,0.04938271604938272,14.814814814814817,0)" xlink:href="#B"/><use transform="matrix(0.04938271604938272,0,0,0.04938271604938272,23.703703703703706,0)" xlink:href="#A"/><use transform="matrix(0.04938271604938272,0,0,0.04938271604938272,31.555555555555557,0)" xlink:href="#x"/></g><path d="M90-170c54-1 76 32 76 87 1 56-23 87-77 87-53 0-75-32-75-87s23-86 76-87zM89-14c28-2 26-38 26-69s3-69-26-69c-27 0-24 39-24 69s-3 66 24 69" id="N"/><path d="M107-230c-31-13-29 30-29 65h34v18H78v131l27 4V0H10v-12l18-4v-131H3v-12l25-7c-8-66 31-98 95-84v39h-11" id="O"/><g id="j"><use transform="matrix(0.04938271604938272,0,0,0.04938271604938272,0,0)" xlink:href="#N"/><use transform="matrix(0.04938271604938272,0,0,0.04938271604938272,8.88888888888889,0)" xlink:href="#O"/></g><path d="M72-18c49 15 64-22 62-69-1-34-4-62-34-63-10-1-23 2-28 6v126zm33 22C77 4 48-3 21-8v-226l-16-4v-12h67c-1 31 2 66-2 94 11-8 28-14 47-14 51 0 70 31 69 83-1 55-26 91-81 91" id="P"/><path d="M77-16l18 4V0H8v-12l18-4v-133l-17-5v-11h68v149zM51-196c-16 0-27-10-27-27s10-27 27-27 27 11 27 27c0 17-10 27-27 27" id="Q"/><path d="M132-132c-21 0-37 9-50 16v100l26 4V0H10v-12l21-4v-133l-21-5v-11h69l2 34c17-18 35-41 71-40v61c-17 3-14-14-20-22" id="R"/><path d="M127-114c3-31-26-38-50-25v123l15 4V0H10v-12l16-4v-218l-17-4v-12h68l-1 99c31-23 102-32 102 30v105l17 4V0h-82v-12l14-4v-98" id="S"/><g id="k"><use transform="matrix(0.04938271604938272,0,0,0.04938271604938272,0,0)" xlink:href="#P"/><use transform="matrix(0.04938271604938272,0,0,0.04938271604938272,9.876543209876544,0)" xlink:href="#Q"/><use transform="matrix(0.04938271604938272,0,0,0.04938271604938272,14.814814814814817,0)" xlink:href="#R"/><use transform="matrix(0.04938271604938272,0,0,0.04938271604938272,22.666666666666668,0)" xlink:href="#C"/><use transform="matrix(0.04938271604938272,0,0,0.04938271604938272,28.543209876543212,0)" xlink:href="#S"/></g></defs></g></svg>