<svg xmlns="http://www.w3.org/2000/svg" xmlns:xlink="http://www.w3.org/1999/xlink" xmlns:lucid="lucid" width="1380.05" height="310.25"><g transform="translate(-155.45872809938749 -339.94778848746034)" lucid:page-tab-id="0_0"><path d="M352.92 489.96c24.3 0 44 27.54 44 61.52 0 33.98-19.7 61.53-44 61.53H220.95c-24.3 0-44-27.54-44-61.52 0-33.98 19.7-61.52 44-61.52z" stroke="#8babc7" stroke-width="3" fill="#deebf7"/><use xlink:href="#a" transform="matrix(1,0,0,1,181.95872809938749,494.9556182757768) translate(20 46.333333333333336)"/><use xlink:href="#b" transform="matrix(1,0,0,1,181.95872809938749,494.9556182757768) translate(3.999999999999986 78.33333333333334)"/><use xlink:href="#c" transform="matrix(1,0,0,1,181.95872809938749,494.9556182757768) translate(98.00000000000001 78.33333333333334)"/><path d="M725.3 489.96c24.28 0 43.98 27.54 43.98 61.52 0 33.98-19.7 61.53-44 61.53H593.32c-24.3 0-44-27.54-44-61.52 0-33.98 19.7-61.52 44-61.52z" stroke="#8babc7" stroke-width="3" fill="#fef3c7"/><use xlink:href="#d" transform="matrix(1,0,0,1,554.3248996967119,494.9556182757768) translate(35.40740740740739 46.333333333333336)"/><use xlink:href="#e" transform="matrix(1,0,0,1,554.3248996967119,494.9556182757768) translate(108.14814814814815 46.333333333333336)"/><use xlink:href="#f" transform="matrix(1,0,0,1,554.3248996967119,494.9556182757768) translate(70.22222222222221 78.33333333333334)"/><path d="M1097.65 489.96c24.3 0 44 27.54 44 61.52 0 33.98-19.7 61.53-44 61.53H965.68c-24.3 0-44-27.54-44-61.52 0-33.98 19.7-61.52 44-61.52z" stroke="#8babc7" stroke-width="3" fill="#deebf7"/><use xlink:href="#g" transform="matrix(1,0,0,1,926.6910712940363,494.9556182757768) translate(25.333333333333314 62.333333333333336)"/><use xlink:href="#h" transform="matrix(1,0,0,1,926.6910712940363,494.9556182757768) translate(124.07407407407409 62.333333333333336)"/><path d="M1470.02 489.96c24.3 0 44 27.54 44 61.52 0 33.98-19.7 61.53-44 61.53h-131.97c-24.3 0-44-27.54-44-61.52 0-33.98 19.7-61.52 44-61.52z" stroke="#8babc7" stroke-width="3" fill="#deebf7"/><use xlink:href="#i" transform="matrix(1,0,0,1,1299.0572428913606,494.9556182757768) translate(20.851851851851848 62.333333333333336)"/><use xlink:href="#j" transform="matrix(1,0,0,1,1299.0572428913606,494.9556182757768) translate(79.14814814814815 62.333333333333336)"/><path d="M399.9 551.48h127.3" stroke="#333" stroke-width="3" stroke-linejoin="round" fill="none"/><path d="M399.95 552.96h-1.6l.06-1.46V550h1.55z" stroke="#333" stroke-width=".05" fill="#333"/><path d="M542.97 551.48l-14.26 4.64v-9.27z" stroke="#333" stroke-width="3" fill="#333"/><use xlink:href="#k" transform="matrix(1,0,0,1,436.71777750848844,555.4806182757768) translate(0.005000000000002558 14.4)"/><use xlink:href="#l" transform="matrix(1,0,0,1,436.71777750848844,555.4806182757768) translate(11.505000000000003 36)"/><path d="M767.82 578.98l10.97 4 10.5 3.33 9.27 2.52 8.4 1.9 7.8 1.43 7.42 1.04 7.18.7 7.1.38 7.1.1 7.3-.2 7.66-.55 8.2-.93 9.08-1.42 10.46-2.08 12.8-3.12 5.78-1.67" stroke="#333" stroke-width="3" stroke-linejoin="round" fill="none"/><path d="M768.36 577.6l-1 2.78-1.48-.54.64-1.68.32-1.1z" stroke="#333" stroke-width=".05" fill="#333"/><path d="M919.95 579.86l-12.32 8.56-2.67-8.88z" stroke="#333" stroke-width="3" fill="#333"/><use xlink:href="#m" transform="matrix(1,0,0,1,769.4297430132773,603.0021737089037) translate(34.90499999999999 14.4)"/><use xlink:href="#n" transform="matrix(1,0,0,1,769.4297430132773,603.0021737089037) translate(0.0049999999999954525 36)"/><use xlink:href="#o" transform="matrix(1,0,0,1,769.4297430132773,603.0021737089037) translate(62.904999999999994 36)"/><use xlink:href="#p" transform="matrix(1,0,0,1,769.4297430132773,603.0021737089037) translate(88.85499999999999 36)"/><path d="M1144.64 551.48h127.3" stroke="#333" stroke-width="3" stroke-linejoin="round" fill="none"/><path d="M1144.68 552.96h-1.6l.06-1.46-.02-1.5h1.56z" stroke="#333" stroke-width=".05" fill="#333"/><path d="M1287.7 551.48l-14.26 4.64v-9.27z" stroke="#333" stroke-width="3" fill="#333"/><g><use xlink:href="#q" transform="matrix(1,0,0,1,1156.9501207031371,560.1158731914011) translate(2.0300000000000082 14.4)"/><use xlink:href="#r" transform="matrix(1,0,0,1,1156.9501207031371,560.1158731914011) translate(66.88 14.4)"/><use xlink:href="#s" transform="matrix(1,0,0,1,1156.9501207031371,560.1158731914011) translate(0.005000000000002558 36)"/><use xlink:href="#t" transform="matrix(1,0,0,1,1156.9501207031371,560.1158731914011) translate(59.90500000000001 36)"/></g><path d="M1309.33 500.44l-11.82-7.46-15.06-8.65-17.4-9.05-20.14-9.4-23.35-9.75-27.03-9.98-31.24-10.07-35.87-9.92-40.77-9.46-45.66-8.6-50.06-7.27-53.45-5.5-55.38-3.36-55.57-1.05-54.04 1.23-51.1 3.3-47.24 5.06-42.9 6.42-38.46 7.4-34.22 8.1-30.3 8.5-26.78 8.75-23.65 8.84-20.9 8.85-18.54 8.76-16.47 8.65-14.67 8.5-9.85 6.28" stroke="#333" stroke-width="3" stroke-linejoin="round" fill="none"/><path d="M1311.65 500.16l-2.1 2.16-1.04-.66 1.58-2.5z" stroke="#333" stroke-width=".05" fill="#333"/><path d="M384.4 498.48l9.1-11.92 5.28 7.63z" stroke="#333" stroke-width="3" fill="#333"/><g><use xlink:href="#u" transform="matrix(1,0,0,1,737.2346599795734,343.94778848746034) translate(0.0049999999999954525 14.4)"/><use xlink:href="#v" transform="matrix(1,0,0,1,737.2346599795734,343.94778848746034) translate(109.80499999999999 14.4)"/><use xlink:href="#w" transform="matrix(1,0,0,1,737.2346599795734,343.94778848746034) translate(129.805 14.4)"/><use xlink:href="#r" transform="matrix(1,0,0,1,737.2346599795734,343.94778848746034) translate(159.805 14.4)"/><use xlink:href="#l" transform="matrix(1,0,0,1,737.2346599795734,343.94778848746034) translate(81.455 36)"/></g><path d="M923.1 524.1l-10.96-4-10.5-3.34-9.26-2.5-8.4-1.92-7.8-1.43-7.42-1.02-7.18-.7-7.1-.4-7.1-.1-7.3.22-7.65.54-8.2.93-9.07 1.42-10.45 2.07-12.78 3.1-5.78 1.68" stroke="#333" stroke-width="3" stroke-linejoin="round" fill="none"/><path d="M925.05 523.22l-.6 1.58-.36 1.2-1.53-.54 1-2.77z" stroke="#333" stroke-width=".05" fill="#333"/><path d="M771.05 523.2l12.32-8.55 2.67 8.87z" stroke="#333" stroke-width="3" fill="#333"/><defs><path d="M253-144c0 77-36 126-100 143 15 20 28 49 66 41-6 34-76 17-83-7L117 4C60 0 20-30 20-90c0-88 45-148 135-148 61 0 98 34 98 94zM120-11c68 0 98-65 98-135 0-45-20-78-65-78-70 0-98 66-98 136 0 45 21 77 65 77" id="x"/><path d="M54 4C18 7 16-31 22-63l16-90-20-4 2-8h49L47-34c4 35 53 9 61-6 4-5 7-9 10-14l20-111h29L140-12l21 4-2 8h-48l4-34C101-15 84 2 54 4" id="y"/><path d="M43-73c-15 62 59 70 91 41l5 7C122-11 100 4 70 4 31 4 11-19 11-58c0-67 42-123 113-109 16 3 26 15 28 33-8 46-58 56-109 61zm78-61c0-37-45-19-57 1-8 14-15 33-20 49 39-4 77-13 77-50" id="z"/><path d="M51-128c6 41 68 31 71 79C125 10 47 12 4-7l8-40h8c-2 25 10 37 34 37 22-1 41-8 39-32-4-43-70-30-70-79 0-52 62-56 106-42l-6 36h-9c2-21-12-29-31-29-19 1-35 9-32 28" id="A"/><path d="M91-12C68 11 9 12 18-40l19-110H16c-1-14 16-10 25-15l24-38h11l-7 38h38l-3 15H67L46-31c-2 21 28 17 41 11" id="B"/><path d="M51-12l28 4-1 8H20l27-153-23-4 2-8h52zm19-226c28 0 22 38 0 38-10-2-19-7-19-19s7-18 19-19" id="C"/><path d="M103-156c-44 0-59 47-61 96 0 29 9 49 35 49 45 0 62-48 62-96 0-29-11-49-36-49zm66 56C168-39 135 4 75 4 34 4 10-23 11-66c1-61 34-104 94-104 41 0 65 27 64 70" id="D"/><path d="M65-132c14-36 103-60 96 5-4 40-13 77-19 115l23 4-1 8h-53l22-131c-12-41-64 1-72 20L42 0H13l27-153c-7-4-24 0-20-12h49" id="E"/><path d="M3 4h-20l125-241h19" id="F"/><path d="M65-128c17-22 38-47 76-40l-8 43c-13 1-9-15-14-22-28 2-42 22-56 39L44 0H15l26-153-20-4 1-8h49" id="G"/><path d="M122-165c22-2 49-2 35 26C123-72 82-1 38 57 25 74-1 83-30 75l6-36h8c-3 31 34 21 46 5C41 30 51 14 60-2L27-153l-19-4 1-8h45L80-37c17-35 45-62 52-105 2-11-14-11-10-23" id="H"/><g id="a"><use transform="matrix(0.07407407407407408,0,0,0.07407407407407408,0,0)" xlink:href="#x"/><use transform="matrix(0.07407407407407408,0,0,0.07407407407407408,19.185185185185187,0)" xlink:href="#y"/><use transform="matrix(0.07407407407407408,0,0,0.07407407407407408,32.51851851851852,0)" xlink:href="#z"/><use transform="matrix(0.07407407407407408,0,0,0.07407407407407408,44.29629629629629,0)" xlink:href="#A"/><use transform="matrix(0.07407407407407408,0,0,0.07407407407407408,54.66666666666667,0)" xlink:href="#B"/><use transform="matrix(0.07407407407407408,0,0,0.07407407407407408,62.074074074074076,0)" xlink:href="#C"/><use transform="matrix(0.07407407407407408,0,0,0.07407407407407408,69.48148148148148,0)" xlink:href="#D"/><use transform="matrix(0.07407407407407408,0,0,0.07407407407407408,82.81481481481481,0)" xlink:href="#E"/><use transform="matrix(0.07407407407407408,0,0,0.07407407407407408,96.14814814814814,0)" xlink:href="#F"/><use transform="matrix(0.07407407407407408,0,0,0.07407407407407408,103.55555555555556,0)" xlink:href="#x"/><use transform="matrix(0.07407407407407408,0,0,0.07407407407407408,122.74074074074073,0)" xlink:href="#y"/><use transform="matrix(0.07407407407407408,0,0,0.07407407407407408,136.07407407407408,0)" xlink:href="#z"/><use transform="matrix(0.07407407407407408,0,0,0.07407407407407408,147.85185185185185,0)" xlink:href="#G"/><use transform="matrix(0.07407407407407408,0,0,0.07407407407407408,158.22222222222226,0)" xlink:href="#H"/></g><path d="M81 77C29 52 3-6 17-87c15-83 55-132 121-163l-2 15C67-201 44-118 44-23c0 41 14 67 39 85" id="I"/><path d="M109-169c21-2 37 13 48 1h9L139-12l20 4-2 8h-50l5-27C96-11 82 4 58 4 25 4 10-20 11-55c2-65 34-107 98-114zM42-60c0 51 54 48 72 17l20-104c-53-30-92 31-92 87" id="J"/><path d="M50-12l28 4-1 8H19l42-238-23-4 2-8h52" id="K"/><g id="b"><use transform="matrix(0.07407407407407408,0,0,0.07407407407407408,0,0)" xlink:href="#I"/><use transform="matrix(0.07407407407407408,0,0,0.07407407407407408,8.814814814814817,0)" xlink:href="#E"/><use transform="matrix(0.07407407407407408,0,0,0.07407407407407408,22.148148148148152,0)" xlink:href="#J"/><use transform="matrix(0.07407407407407408,0,0,0.07407407407407408,35.48148148148149,0)" xlink:href="#B"/><use transform="matrix(0.07407407407407408,0,0,0.07407407407407408,42.8888888888889,0)" xlink:href="#y"/><use transform="matrix(0.07407407407407408,0,0,0.07407407407407408,56.222222222222236,0)" xlink:href="#G"/><use transform="matrix(0.07407407407407408,0,0,0.07407407407407408,66.59259259259261,0)" xlink:href="#J"/><use transform="matrix(0.07407407407407408,0,0,0.07407407407407408,79.92592592592595,0)" xlink:href="#K"/></g><path d="M44-60c0 54 56 47 75 17l19-108c-60-20-94 32-94 91zm86 99C116 81 41 85 0 64l3-40c19 1 8 30 31 32 38 13 71-6 76-43l6-41C103-14 85 4 60 4 28 4 12-20 12-55c1-85 67-133 157-107-14 66-20 141-39 201" id="L"/><path d="M40-250c52 26 79 83 64 163C88-4 48 46-17 77l3-15C53 27 77-55 77-150c0-41-13-68-39-85" id="M"/><g id="c"><use transform="matrix(0.07407407407407408,0,0,0.07407407407407408,0,0)" xlink:href="#K"/><use transform="matrix(0.07407407407407408,0,0,0.07407407407407408,7.407407407407408,0)" xlink:href="#J"/><use transform="matrix(0.07407407407407408,0,0,0.07407407407407408,20.740740740740744,0)" xlink:href="#E"/><use transform="matrix(0.07407407407407408,0,0,0.07407407407407408,34.074074074074076,0)" xlink:href="#L"/><use transform="matrix(0.07407407407407408,0,0,0.07407407407407408,47.40740740740741,0)" xlink:href="#y"/><use transform="matrix(0.07407407407407408,0,0,0.07407407407407408,60.74074074074075,0)" xlink:href="#J"/><use transform="matrix(0.07407407407407408,0,0,0.07407407407407408,74.07407407407408,0)" xlink:href="#L"/><use transform="matrix(0.07407407407407408,0,0,0.07407407407407408,87.40740740740742,0)" xlink:href="#z"/><use transform="matrix(0.07407407407407408,0,0,0.07407407407407408,99.1851851851852,0)" xlink:href="#M"/></g><path d="M255-236l-2 10-23 4L102 5h-9L41-222l-22-4 2-10h86l-2 10-29 4 38 172 94-172-26-4 2-10h71" id="N"/><g id="d"><use transform="matrix(0.07407407407407408,0,0,0.07407407407407408,0,0)" xlink:href="#N"/><use transform="matrix(0.07407407407407408,0,0,0.07407407407407408,14.222222222222225,0)" xlink:href="#C"/><use transform="matrix(0.07407407407407408,0,0,0.07407407407407408,21.629629629629633,0)" xlink:href="#A"/><use transform="matrix(0.07407407407407408,0,0,0.07407407407407408,32.00000000000001,0)" xlink:href="#y"/><use transform="matrix(0.07407407407407408,0,0,0.07407407407407408,45.33333333333334,0)" xlink:href="#J"/><use transform="matrix(0.07407407407407408,0,0,0.07407407407407408,58.66666666666667,0)" xlink:href="#K"/></g><g id="e"><use transform="matrix(0.07407407407407408,0,0,0.07407407407407408,0,0)" xlink:href="#x"/><use transform="matrix(0.07407407407407408,0,0,0.07407407407407408,19.185185185185187,0)" xlink:href="#y"/><use transform="matrix(0.07407407407407408,0,0,0.07407407407407408,32.51851851851852,0)" xlink:href="#z"/><use transform="matrix(0.07407407407407408,0,0,0.07407407407407408,44.29629629629629,0)" xlink:href="#G"/><use transform="matrix(0.07407407407407408,0,0,0.07407407407407408,54.66666666666667,0)" xlink:href="#H"/></g><path d="M55-88c-5 73 74 95 127 61l11-62-29-5 1-9h87l-1 9-24 5-13 74C187-4 158 3 121 3 57 3 21-29 20-92c-4-122 107-169 225-136l-9 51h-12l1-29c-14-12-34-19-60-18-74 4-105 57-110 136" id="O"/><path d="M169-111C169-36 120 15 41 0L31 64l28 4-2 9h-78l1-9 22-4 38-217c-7-3-22 0-17-12h47l-3 26c16-16 31-31 55-31 33 0 47 25 47 59zm-31 5c0-52-55-47-74-17L45-19c54 29 93-31 93-87" id="P"/><path d="M129-102c7-23 4-59-29-44-16 7-30 21-38 35L42 0H13l42-238-21-4 1-8h51L65-132c14-18 31-37 61-38 37-2 38 36 32 68l-16 90 23 4-1 8h-53" id="Q"/><g id="f"><use transform="matrix(0.07407407407407408,0,0,0.07407407407407408,0,0)" xlink:href="#O"/><use transform="matrix(0.07407407407407408,0,0,0.07407407407407408,19.185185185185187,0)" xlink:href="#G"/><use transform="matrix(0.07407407407407408,0,0,0.07407407407407408,29.555555555555554,0)" xlink:href="#J"/><use transform="matrix(0.07407407407407408,0,0,0.07407407407407408,42.88888888888889,0)" xlink:href="#P"/><use transform="matrix(0.07407407407407408,0,0,0.07407407407407408,56.22222222222223,0)" xlink:href="#Q"/></g><path d="M165-71C165 10 60 18 4-13l9-52h12v33C53 9 163-15 130-79c-21-40-93-34-95-95-2-67 80-72 139-58l-8 49h-12c-1-18 3-37-16-37-34-11-77 3-72 40 8 57 99 40 99 109" id="R"/><path d="M176-171c0-44-31-52-77-49L79-108c57 3 97-8 97-63zm35-2c-1 69-59 85-135 81L62-14l39 5-2 9H-2l2-9 28-5 37-208-29-4 1-10c77 2 175-16 174 63" id="S"/><path d="M46-9l-1 9h-65C-21-13-7-11 2-14l120-224h33l44 224 22 5-2 9h-83l2-9 25-5-11-68H59L23-14zm81-203L67-98h82" id="T"/><path d="M210-179c0 44-27 62-62 71l40 94 26 5-2 9h-54l-43-103H78L62-14l32 5-2 9H-2l2-9 28-5 37-208-29-4 1-10c74 3 172-17 173 57zm-35 1c0-39-34-45-76-42L81-119c54 3 94-9 94-59" id="U"/><path d="M136-226l-37 4L62-15c29-1 66 1 90-4l20-49h11L168 0H-4l2-9 30-5 37-208-29-4 1-10h101" id="V"/><g id="g"><use transform="matrix(0.07407407407407408,0,0,0.07407407407407408,0,0)" xlink:href="#R"/><use transform="matrix(0.07407407407407408,0,0,0.07407407407407408,13.333333333333336,0)" xlink:href="#S"/><use transform="matrix(0.07407407407407408,0,0,0.07407407407407408,26.148148148148152,0)" xlink:href="#T"/><use transform="matrix(0.07407407407407408,0,0,0.07407407407407408,42.37037037037038,0)" xlink:href="#U"/><use transform="matrix(0.07407407407407408,0,0,0.07407407407407408,58.59259259259261,0)" xlink:href="#x"/><use transform="matrix(0.07407407407407408,0,0,0.07407407407407408,77.7777777777778,0)" xlink:href="#V"/></g><path d="M43-60c-7 46 47 49 76 29l21-120c-63-22-100 29-97 91zm-31 4c-2-89 70-132 160-106L131 64l21 4-2 9H99l19-96C104-9 85 4 62 4 27 4 12-19 12-56" id="W"/><g id="h"><use transform="matrix(0.07407407407407408,0,0,0.07407407407407408,0,0)" xlink:href="#W"/><use transform="matrix(0.07407407407407408,0,0,0.07407407407407408,13.333333333333336,0)" xlink:href="#y"/><use transform="matrix(0.07407407407407408,0,0,0.07407407407407408,26.66666666666667,0)" xlink:href="#z"/><use transform="matrix(0.07407407407407408,0,0,0.07407407407407408,38.44444444444445,0)" xlink:href="#G"/><use transform="matrix(0.07407407407407408,0,0,0.07407407407407408,48.814814814814824,0)" xlink:href="#H"/></g><path d="M63-17c98 13 155-28 155-121 0-68-48-86-119-82zm192-122C255-6 140 11-4 0l2-9 30-5 37-208-29-4 1-10c107-2 218-10 218 97" id="X"/><path d="M78-106L62-14l39 5-2 9H-2l2-9 28-5 37-208-29-4 1-10h186l-10 57h-12l1-38c-30-4-68-3-103-3l-18 98h78l11-28h11l-13 73h-11v-29H78" id="Y"/><g id="i"><use transform="matrix(0.07407407407407408,0,0,0.07407407407407408,0,0)" xlink:href="#U"/><use transform="matrix(0.07407407407407408,0,0,0.07407407407407408,16.222222222222225,0)" xlink:href="#X"/><use transform="matrix(0.07407407407407408,0,0,0.07407407407407408,35.40740740740741,0)" xlink:href="#Y"/></g><g id="j"><use transform="matrix(0.07407407407407408,0,0,0.07407407407407408,0,0)" xlink:href="#B"/><use transform="matrix(0.07407407407407408,0,0,0.07407407407407408,7.407407407407408,0)" xlink:href="#G"/><use transform="matrix(0.07407407407407408,0,0,0.07407407407407408,17.77777777777778,0)" xlink:href="#C"/><use transform="matrix(0.07407407407407408,0,0,0.07407407407407408,25.185185185185187,0)" xlink:href="#P"/><use transform="matrix(0.07407407407407408,0,0,0.07407407407407408,38.51851851851851,0)" xlink:href="#K"/><use transform="matrix(0.07407407407407408,0,0,0.07407407407407408,45.925925925925924,0)" xlink:href="#z"/><use transform="matrix(0.07407407407407408,0,0,0.07407407407407408,57.7037037037037,0)" xlink:href="#A"/><use transform="matrix(0.07407407407407408,0,0,0.07407407407407408,68.07407407407408,0)" xlink:href="#B"/><use transform="matrix(0.07407407407407408,0,0,0.07407407407407408,75.48148148148148,0)" xlink:href="#D"/><use transform="matrix(0.07407407407407408,0,0,0.07407407407407408,88.81481481481481,0)" xlink:href="#G"/><use transform="matrix(0.07407407407407408,0,0,0.07407407407407408,98.22222222222221,0)" xlink:href="#z"/></g><path d="M101-234c-31-9-42 10-38 44h38v23H63V0H32v-167H5v-23h27c-7-52 17-82 69-68v24" id="Z"/><path d="M100-194c62-1 85 37 85 99 1 63-27 99-86 99S16-35 15-95c0-66 28-99 85-99zM99-20c44 1 53-31 53-75 0-43-8-75-51-75s-53 32-53 75 10 74 51 75" id="aa"/><path d="M114-163C36-179 61-72 57 0H25l-1-190h30c1 12-1 29 2 39 6-27 23-49 58-41v29" id="ab"/><path d="M210-169c-67 3-38 105-44 169h-31v-121c0-29-5-50-35-48C34-165 62-65 56 0H25l-1-190h30c1 10-1 24 2 32 10-44 99-50 107 0 11-21 27-35 58-36 85-2 47 119 55 194h-31v-121c0-29-5-49-35-48" id="ac"/><path d="M141-36C126-15 110 5 73 4 37 3 15-17 15-53c-1-64 63-63 125-63 3-35-9-54-41-54-24 1-41 7-42 31l-33-3c5-37 33-52 76-52 45 0 72 20 72 64v82c-1 20 7 32 28 27v20c-31 9-61-2-59-35zM48-53c0 20 12 33 32 33 41-3 63-29 60-74-43 2-92-5-92 41" id="ad"/><path d="M24 0v-261h32V0H24" id="ae"/><path d="M24-231v-30h32v30H24zM24 0v-190h32V0H24" id="af"/><path d="M135-143c-3-34-86-38-87 0 15 53 115 12 119 90S17 21 10-45l28-5c4 36 97 45 98 0-10-56-113-15-118-90-4-57 82-63 122-42 12 7 21 19 24 35" id="ag"/><path d="M100-194c63 0 86 42 84 106H49c0 40 14 67 53 68 26 1 43-12 49-29l28 8c-11 28-37 45-77 45C44 4 14-33 15-96c1-61 26-98 85-98zm52 81c6-60-76-77-97-28-3 7-6 17-6 28h103" id="ah"/><g id="k"><use transform="matrix(0.05,0,0,0.05,0,0)" xlink:href="#Z"/><use transform="matrix(0.05,0,0,0.05,5,0)" xlink:href="#aa"/><use transform="matrix(0.05,0,0,0.05,15,0)" xlink:href="#ab"/><use transform="matrix(0.05,0,0,0.05,20.95,0)" xlink:href="#ac"/><use transform="matrix(0.05,0,0,0.05,35.9,0)" xlink:href="#ad"/><use transform="matrix(0.05,0,0,0.05,45.9,0)" xlink:href="#ae"/><use transform="matrix(0.05,0,0,0.05,49.85,0)" xlink:href="#af"/><use transform="matrix(0.05,0,0,0.05,53.800000000000004,0)" xlink:href="#ag"/><use transform="matrix(0.05,0,0,0.05,62.800000000000004,0)" xlink:href="#ah"/></g><path d="M87 75C49 33 22-17 22-94c0-76 28-126 65-167h31c-38 41-64 92-64 168S80 34 118 75H87" id="ai"/><path d="M232-93c-1 65-40 97-104 97C67 4 28-28 28-90v-158h33c8 89-33 224 67 224 102 0 64-133 71-224h33v155" id="aj"/><path d="M33-261c38 41 65 92 65 168S71 34 33 75H2C39 34 66-17 66-93S39-220 2-261h31" id="ak"/><g id="l"><use transform="matrix(0.05,0,0,0.05,0,0)" xlink:href="#ai"/><use transform="matrix(0.05,0,0,0.05,5.95,0)" xlink:href="#aj"/><use transform="matrix(0.05,0,0,0.05,18.900000000000002,0)" xlink:href="#ag"/><use transform="matrix(0.05,0,0,0.05,27.900000000000002,0)" xlink:href="#ah"/><use transform="matrix(0.05,0,0,0.05,37.900000000000006,0)" xlink:href="#ab"/><use transform="matrix(0.05,0,0,0.05,43.85000000000001,0)" xlink:href="#ak"/></g><path d="M59-47c-2 24 18 29 38 22v24C64 9 27 4 27-40v-127H5v-23h24l9-43h21v43h35v23H59v120" id="al"/><path d="M117-194c89-4 53 116 60 194h-32v-121c0-31-8-49-39-48C34-167 62-67 57 0H25l-1-190h30c1 10-1 24 2 32 11-22 29-35 61-36" id="am"/><g id="m"><use transform="matrix(0.05,0,0,0.05,0,0)" xlink:href="#al"/><use transform="matrix(0.05,0,0,0.05,5,0)" xlink:href="#ab"/><use transform="matrix(0.05,0,0,0.05,10.95,0)" xlink:href="#ad"/><use transform="matrix(0.05,0,0,0.05,20.95,0)" xlink:href="#am"/><use transform="matrix(0.05,0,0,0.05,30.950000000000003,0)" xlink:href="#ag"/><use transform="matrix(0.05,0,0,0.05,39.95,0)" xlink:href="#ae"/><use transform="matrix(0.05,0,0,0.05,43.900000000000006,0)" xlink:href="#ad"/><use transform="matrix(0.05,0,0,0.05,53.900000000000006,0)" xlink:href="#al"/><use transform="matrix(0.05,0,0,0.05,58.900000000000006,0)" xlink:href="#ah"/><use transform="matrix(0.05,0,0,0.05,68.9,0)" xlink:href="#ag"/></g><path d="M140-251c80 0 125 45 125 126 0 70-33 111-92 124 6 28 34 38 68 31l-1 36C177 83 129 55 120 2 51-6 15-50 15-125c0-81 44-126 125-126zm-1 214c52 0 73-35 73-88 0-50-21-86-72-86-52 0-73 35-73 86s22 88 72 88" id="an"/><path d="M85 4C-2 5 27-109 22-190h50c7 57-23 150 33 157 60-5 35-97 40-157h50l1 190h-47c-2-12 1-28-3-38-12 25-28 42-61 42" id="ao"/><path d="M185-48c-13 30-37 53-82 52C43 2 14-33 14-96s30-98 90-98c62 0 83 45 84 108H66c0 31 8 55 39 56 18 0 30-7 34-22zm-45-69c5-46-57-63-70-21-2 6-4 13-4 21h74" id="ap"/><path d="M135-150c-39-12-60 13-60 57V0H25l-1-190h47c2 13-1 29 3 40 6-28 27-53 61-41v41" id="aq"/><path d="M123 10C108 53 80 86 19 72V37c35 8 53-11 59-39L3-190h52l48 148c12-52 28-100 44-148h51" id="ar"/><g id="n"><use transform="matrix(0.05,0,0,0.05,0,0)" xlink:href="#ai"/><use transform="matrix(0.05,0,0,0.05,5.95,0)" xlink:href="#an"/><use transform="matrix(0.05,0,0,0.05,19.95,0)" xlink:href="#ao"/><use transform="matrix(0.05,0,0,0.05,30.899999999999995,0)" xlink:href="#ap"/><use transform="matrix(0.05,0,0,0.05,40.9,0)" xlink:href="#aq"/><use transform="matrix(0.05,0,0,0.05,47.9,0)" xlink:href="#ar"/></g><path d="M135-194c52 0 70 43 70 98 0 56-19 99-73 100-30 1-46-15-58-35L72 0H24l1-261h50v104c11-23 29-37 60-37zM114-30c31 0 40-27 40-66 0-37-7-63-39-63s-41 28-41 65c0 36 8 64 40 64" id="as"/><g id="o"><use transform="matrix(0.05,0,0,0.05,0,0)" xlink:href="#as"/><use transform="matrix(0.05,0,0,0.05,10.950000000000001,0)" xlink:href="#ar"/></g><path d="M67-125c0 54 23 88 75 88 28 0 53-7 68-21v-34h-60v-39h108v91C232-14 192 4 140 4 58 4 20-42 15-125 8-236 126-280 215-234c19 10 29 26 37 47l-47 15c-11-23-29-39-63-39-53 1-75 33-75 86" id="at"/><path d="M133-34C117-15 103 5 69 4 32 3 11-16 11-54c-1-60 55-63 116-61 1-26-3-47-28-47-18 1-26 9-28 27l-52-2c7-38 36-58 82-57s74 22 75 68l1 82c-1 14 12 18 25 15v27c-30 8-71 5-69-32zm-48 3c29 0 43-24 42-57-32 0-66-3-65 30 0 17 8 27 23 27" id="au"/><path d="M135-194c53 0 70 44 70 98 0 56-19 98-73 100-31 1-45-17-59-34 3 33 2 69 2 105H25l-1-265h48c2 10 0 23 3 31 11-24 29-35 60-35zM114-30c33 0 39-31 40-66 0-38-9-64-40-64-56 0-55 130 0 130" id="av"/><path d="M114-157C55-157 80-60 75 0H25v-261h50l-1 109c12-26 28-41 61-42 86-1 58 113 63 194h-50c-7-57 23-157-34-157" id="aw"/><g id="p"><use transform="matrix(0.05,0,0,0.05,0,0)" xlink:href="#at"/><use transform="matrix(0.05,0,0,0.05,14,0)" xlink:href="#aq"/><use transform="matrix(0.05,0,0,0.05,21,0)" xlink:href="#au"/><use transform="matrix(0.05,0,0,0.05,31,0)" xlink:href="#av"/><use transform="matrix(0.05,0,0,0.05,41.95,0)" xlink:href="#aw"/><use transform="matrix(0.05,0,0,0.05,52.900000000000006,0)" xlink:href="#ak"/></g><path d="M108 0H70L1-190h34L89-25l56-165h34" id="ax"/><g id="q"><use transform="matrix(0.05,0,0,0.05,0,0)" xlink:href="#ab"/><use transform="matrix(0.05,0,0,0.05,5.95,0)" xlink:href="#ah"/><use transform="matrix(0.05,0,0,0.05,15.949999999999998,0)" xlink:href="#al"/><use transform="matrix(0.05,0,0,0.05,20.95,0)" xlink:href="#ab"/><use transform="matrix(0.05,0,0,0.05,26.899999999999995,0)" xlink:href="#af"/><use transform="matrix(0.05,0,0,0.05,30.849999999999994,0)" xlink:href="#ah"/><use transform="matrix(0.05,0,0,0.05,40.849999999999994,0)" xlink:href="#ax"/><use transform="matrix(0.05,0,0,0.05,49.849999999999994,0)" xlink:href="#ah"/></g><path d="M84 4C-5 8 30-112 23-190h32v120c0 31 7 50 39 49 72-2 45-101 50-169h31l1 190h-30c-1-10 1-25-2-33-11 22-28 36-60 37" id="ay"/><g id="r"><use transform="matrix(0.05,0,0,0.05,0,0)" xlink:href="#ab"/><use transform="matrix(0.05,0,0,0.05,5.95,0)" xlink:href="#ah"/><use transform="matrix(0.05,0,0,0.05,15.949999999999998,0)" xlink:href="#ag"/><use transform="matrix(0.05,0,0,0.05,24.95,0)" xlink:href="#ay"/><use transform="matrix(0.05,0,0,0.05,34.95,0)" xlink:href="#ae"/><use transform="matrix(0.05,0,0,0.05,38.900000000000006,0)" xlink:href="#al"/><use transform="matrix(0.05,0,0,0.05,43.900000000000006,0)" xlink:href="#ag"/></g><path d="M140-251c81 0 123 46 123 126C263-53 228-8 163 1c7 30 30 48 69 40v23c-55 16-95-15-103-61C56-3 17-48 17-125c0-80 42-126 123-126zm0 227c63 0 89-41 89-101s-29-99-89-99c-61 0-89 39-89 99S79-25 140-24" id="az"/><path d="M179-190L93 31C79 59 56 82 12 73V49c39 6 53-20 64-50L1-190h34L92-34l54-156h33" id="aA"/><g id="s"><use transform="matrix(0.05,0,0,0.05,0,0)" xlink:href="#ai"/><use transform="matrix(0.05,0,0,0.05,5.95,0)" xlink:href="#az"/><use transform="matrix(0.05,0,0,0.05,19.95,0)" xlink:href="#ay"/><use transform="matrix(0.05,0,0,0.05,29.950000000000003,0)" xlink:href="#ah"/><use transform="matrix(0.05,0,0,0.05,39.95,0)" xlink:href="#ab"/><use transform="matrix(0.05,0,0,0.05,45.900000000000006,0)" xlink:href="#aA"/></g><path d="M30 0v-248h187v28H63v79h144v27H63v87h162V0H30" id="aB"/><path d="M177-190C167-65 218 103 67 71c-23-6-38-20-44-43l32-5c15 47 100 32 89-28v-30C133-14 115 1 83 1 29 1 15-40 15-95c0-56 16-97 71-98 29-1 48 16 59 35 1-10 0-23 2-32h30zM94-22c36 0 50-32 50-73 0-42-14-75-50-75-39 0-46 34-46 75s6 73 46 73" id="aC"/><g id="t"><use transform="matrix(0.05,0,0,0.05,0,0)" xlink:href="#aB"/><use transform="matrix(0.05,0,0,0.05,12,0)" xlink:href="#am"/><use transform="matrix(0.05,0,0,0.05,22,0)" xlink:href="#aC"/><use transform="matrix(0.05,0,0,0.05,32,0)" xlink:href="#af"/><use transform="matrix(0.05,0,0,0.05,35.95,0)" xlink:href="#am"/><use transform="matrix(0.05,0,0,0.05,45.95,0)" xlink:href="#ah"/><use transform="matrix(0.05,0,0,0.05,55.95,0)" xlink:href="#ak"/></g><path d="M115-194c55 1 70 41 70 98S169 2 115 4C84 4 66-9 55-30l1 105H24l-1-265h31l2 30c10-21 28-34 59-34zm-8 174c40 0 45-34 45-75s-6-73-45-74c-42 0-51 32-51 76 0 43 10 73 51 73" id="aD"/><g id="u"><use transform="matrix(0.05,0,0,0.05,0,0)" xlink:href="#af"/><use transform="matrix(0.05,0,0,0.05,3.95,0)" xlink:href="#am"/><use transform="matrix(0.05,0,0,0.05,13.949999999999998,0)" xlink:href="#al"/><use transform="matrix(0.05,0,0,0.05,18.95,0)" xlink:href="#ah"/><use transform="matrix(0.05,0,0,0.05,28.950000000000003,0)" xlink:href="#ab"/><use transform="matrix(0.05,0,0,0.05,34.9,0)" xlink:href="#aD"/><use transform="matrix(0.05,0,0,0.05,44.9,0)" xlink:href="#ab"/><use transform="matrix(0.05,0,0,0.05,50.85,0)" xlink:href="#ah"/><use transform="matrix(0.05,0,0,0.05,60.85,0)" xlink:href="#al"/><use transform="matrix(0.05,0,0,0.05,65.85,0)" xlink:href="#ad"/><use transform="matrix(0.05,0,0,0.05,75.85,0)" xlink:href="#al"/><use transform="matrix(0.05,0,0,0.05,80.85,0)" xlink:href="#af"/><use transform="matrix(0.05,0,0,0.05,84.8,0)" xlink:href="#aa"/><use transform="matrix(0.05,0,0,0.05,94.8,0)" xlink:href="#am"/></g><g id="v"><use transform="matrix(0.05,0,0,0.05,0,0)" xlink:href="#aa"/><use transform="matrix(0.05,0,0,0.05,10,0)" xlink:href="#Z"/></g><path d="M106-169C34-169 62-67 57 0H25v-261h32l-1 103c12-21 28-36 61-36 89 0 53 116 60 194h-32v-121c2-32-8-49-39-48" id="aE"/><g id="w"><use transform="matrix(0.05,0,0,0.05,0,0)" xlink:href="#al"/><use transform="matrix(0.05,0,0,0.05,5,0)" xlink:href="#aE"/><use transform="matrix(0.05,0,0,0.05,15,0)" xlink:href="#ah"/></g></defs></g></svg>