<svg xmlns="http://www.w3.org/2000/svg" xmlns:xlink="http://www.w3.org/1999/xlink" xmlns:lucid="lucid" width="789" height="451"><g transform="translate(-1948 -1793)" lucid:page-tab-id="0_0"><path d="M2339.62 1914.9a2.15 2.15 0 0 0-2.12-2.46 5.33 5.33 0 0 0-4.1 1.93l-264.57 318.46a2.82 2.82 0 0 0 2.17 4.6h213a7 7 0 0 0 6.9-5.92z" stroke="#1071e5" stroke-width="2" fill="#f7def3" fill-opacity=".37"/><path d="M2335.38 1914.9a2.15 2.15 0 0 1 2.12-2.46 5.33 5.33 0 0 1 4.1 1.93l264.57 318.46a2.82 2.82 0 0 1-2.17 4.6h-213a7 7 0 0 1-6.9-5.92z" stroke="#1071e5" stroke-width="2" fill="#def7ed" fill-opacity=".55"/><path d="M2164.33 1914c0 51.9-42.08 94-94 94-51.9 0-94-42.1-94-94s42.1-94 94-94c51.92 0 94 42.1 94 94z" stroke="#8babc7" stroke-width="2" fill="#deebf7"/><use xlink:href="#a" transform="matrix(1,0,0,1,1981.333333333313,1825) translate(23.40740740740739 97.20138888888889)"/><path d="M2696.1 1914c0 51.9-42.07 94-94 94-51.9 0-94-42.1-94-94s42.1-94 94-94c51.93 0 94 42.1 94 94z" stroke="#8babc7" stroke-width="2" fill="#deebf7"/><use xlink:href="#b" transform="matrix(1,0,0,1,2513.1111111111295,1825) translate(7.851851851851848 97.20138888888889)"/><path d="M2166.33 1914h322.28" stroke="#5e5e5e" stroke-width="2" fill="none"/><path d="M2166.36 1914.97h-1.05l.03-.96v-.97h1.03z" stroke="#5e5e5e" stroke-width=".05" fill="#5e5e5e"/><path d="M2503.88 1914l-14.27 4.63v-9.27z" stroke="#5e5e5e" stroke-width="2" fill="#5e5e5e"/><use xlink:href="#c" transform="matrix(1,0,0,1,2310.5925925925917,1888.6666666666667) translate(0.004999999999999005 14.222222222222223)"/><path d="M2415.6 2083.24l-1.77.82-2.8-6.14h2.13zm-12.2-26.65h-2.16l-64.75-141.28 1.76-.82z" stroke="#5e5e5e" stroke-width=".05" fill="#5e5e5e"/><path d="M2338.27 1914.53l-1.77.8-.43-.92 1.78-.8z" stroke="#5e5e5e" stroke-width=".05" fill="#5e5e5e"/><path d="M2421.08 2097.53l-10.16-11.04 8.43-3.87z" fill="#5e5e5e"/><path d="M2422.4 2100.4l-13.1-14.24 10.86-4.98zm-9.85-13.58l7.2 7.84-1.22-10.6z" stroke="#5e5e5e" stroke-width=".05" fill="#5e5e5e"/><use xlink:href="#d" transform="matrix(1,0,0,1,2375.6476445127787,2056.5873660520297) translate(0.004999999999999005 14.222222222222223)"/><path d="M2292.33 2163.78c0 37.92-30.74 68.66-68.66 68.66-37.93 0-68.67-30.74-68.67-68.66 0-37.93 30.74-68.67 68.67-68.67 37.92 0 68.66 30.75 68.66 68.68z" stroke="#8babc7" stroke-width="2" fill="#deebf7"/><use xlink:href="#e" transform="matrix(1,0,0,1,2159.99999999998,2100.1111111111627) translate(4.8888888888888715 69.33333333333334)"/><path d="M2260.18 2083.54l-1.78-.8 2.6-5.9h2.14zm74.32-168.23l-61.93 140.2h-2.14l62.28-140.98z" stroke="#5e5e5e" stroke-width=".05" fill="#5e5e5e"/><path d="M2334.9 1914.4l-.4.93-1.8-.8.42-.92z" stroke="#5e5e5e" stroke-width=".05" fill="#5e5e5e"/><path d="M2263.12 2085.93l-10 11.18 1.52-14.9z" fill="#5e5e5e"/><path d="M2264.74 2085.58l-12.9 14.42 1.97-19.25zm-10.35 8.64l7.1-7.94-6.02-2.66z" stroke="#5e5e5e" stroke-width=".05" fill="#5e5e5e"/><use xlink:href="#f" transform="matrix(1,0,0,1,2235.233352818389,2055.4971604729644) translate(0.004999999999999005 14.222222222222223)"/><path d="M2520.1 2163.78c0 37.92-30.73 68.66-68.66 68.66-37.92 0-68.66-30.74-68.66-68.66 0-37.93 30.74-68.67 68.66-68.67 37.93 0 68.67 30.75 68.67 68.68z" stroke="#8babc7" stroke-width="2" fill="#deebf7"/><use xlink:href="#g" transform="matrix(1,0,0,1,2387.7777777777956,2100.111111111163) translate(1.2222222222222143 69.33333333333334)"/><defs><path d="M240-154L185 4h-14l-41-109L90 4H77L20-153c-7-3-23 1-20-12h79v8l-27 4L91-41l40-108h14l40 109 38-113-28-4v-8h63v8" id="h"/><path d="M13-81c0-71 46-101 114-85l-1-72-28-4v-8h57v238c8 3 24-2 21 12h-47l-2-12C80 23 13-1 13-81zm77-74c-37 1-44 33-45 74 0 38 9 66 45 66 14 0 27-3 36-7v-130c-10-1-24-3-36-3" id="i"/><path d="M50-37c14 0 21 9 21 21S62 5 50 5C37 5 28-4 28-16s8-21 22-21zm0-132c12 0 21 9 21 21 0 13-9 22-21 22-13 0-22-9-22-22 0-12 9-21 22-21" id="j"/><path d="M130-224c-62 0-78 43-78 106 0 64 16 108 78 108s78-44 78-108c0-63-16-106-78-106zM145 3C61 9 15-34 15-118c0-80 37-120 115-120 77 0 115 42 115 120 1 59-21 95-62 112 19 19 30 53 71 46v12c-30 12-67 2-84-19" id="k"/><path d="M134-68c4-52-44-63-88-51H29v-117h119v27H45v75c60-10 121-2 121 64C166 3 87 15 23-4l-2-50h12c1 28 14 43 47 43 39 0 51-20 54-57" id="l"/><path d="M90-239c42 0 69 19 69 61 0 28-14 44-35 53 25 8 42 28 42 61 0 47-28 68-77 68-48 0-75-21-75-68-1-33 18-51 41-61-19-9-34-25-34-53 0-42 26-61 69-61zM89-10c34 0 46-20 46-54 0-32-11-53-46-53-34 0-44 20-44 53-1 34 11 54 44 54zm0-123c28 0 38-16 38-45s-9-47-38-47c-28-1-36 18-36 47s8 45 36 45" id="m"/><path d="M35-180H24v-56h146v14L65 0H42l103-209H41" id="n"/><path d="M133-108C87-80 6-93 12-164c4-49 26-74 76-74 64 1 77 52 77 120C165-26 111 22 21-2v-41h11C28-1 99-4 114-33c10-20 17-43 19-75zm0-12c-3-48 0-104-45-104-34 0-44 25-44 61 0 32 10 52 43 52 17 0 33-4 46-9" id="o"/><g id="a"><use transform="matrix(0.08641975308641976,0,0,0.08641975308641976,0,0)" xlink:href="#h"/><use transform="matrix(0.08641975308641976,0,0,0.08641975308641976,22.38271604938272,0)" xlink:href="#i"/><use transform="matrix(0.08641975308641976,0,0,0.08641975308641976,37.93827160493828,0)" xlink:href="#j"/><use transform="matrix(0.08641975308641976,0,0,0.08641975308641976,46.580246913580254,0)" xlink:href="#k"/><use transform="matrix(0.08641975308641976,0,0,0.08641975308641976,68.96296296296298,0)" xlink:href="#l"/><use transform="matrix(0.08641975308641976,0,0,0.08641975308641976,84.51851851851853,0)" xlink:href="#m"/><use transform="matrix(0.08641975308641976,0,0,0.08641975308641976,100.07407407407409,0)" xlink:href="#n"/><use transform="matrix(0.08641975308641976,0,0,0.08641975308641976,115.62962962962965,0)" xlink:href="#o"/></g><path d="M110-14l48 5v9H32v-9l48-5v-192l-48 17v-10l69-39h9v224" id="p"/><path d="M142-52V0h-30v-52H7v-23l115-162h20v160h32v25h-32zm-30-25l-1-119L27-77h85" id="q"/><path d="M90-239c59 0 76 52 76 120S152 4 89 4C31 4 14-51 14-119c0-67 17-120 76-120zM89-10c45-6 45-58 45-109 0-50 0-101-45-106-45 4-43 57-43 106 0 50-2 104 43 109" id="r"/><g id="b"><use transform="matrix(0.08641975308641976,0,0,0.08641975308641976,0,0)" xlink:href="#h"/><use transform="matrix(0.08641975308641976,0,0,0.08641975308641976,22.38271604938272,0)" xlink:href="#i"/><use transform="matrix(0.08641975308641976,0,0,0.08641975308641976,37.93827160493828,0)" xlink:href="#j"/><use transform="matrix(0.08641975308641976,0,0,0.08641975308641976,46.580246913580254,0)" xlink:href="#k"/><use transform="matrix(0.08641975308641976,0,0,0.08641975308641976,68.96296296296298,0)" xlink:href="#p"/><use transform="matrix(0.08641975308641976,0,0,0.08641975308641976,84.51851851851853,0)" xlink:href="#l"/><use transform="matrix(0.08641975308641976,0,0,0.08641975308641976,100.07407407407409,0)" xlink:href="#q"/><use transform="matrix(0.08641975308641976,0,0,0.08641975308641976,115.62962962962965,0)" xlink:href="#m"/><use transform="matrix(0.08641975308641976,0,0,0.08641975308641976,131.18518518518522,0)" xlink:href="#r"/><use transform="matrix(0.08641975308641976,0,0,0.08641975308641976,146.74074074074076,0)" xlink:href="#q"/></g><path fill="#333" d="M186-86c2 69-46 103-114 85l1 62 25 4v12H5V65l18-4v-210l-18-5v-11h67v8c12-8 26-13 46-13 49 2 67 30 68 84zm-83 71c28 0 31-33 31-69 0-34-2-66-30-66-12 0-23 3-31 7v124c9 2 20 4 30 4" id="s"/><path fill="#333" d="M102-142c-14-17-68-15-54 18 24 26 83 17 83 72 0 62-72 62-120 47v-45h12c4 23 16 37 43 37 35 0 39-37 9-46-31-9-65-19-64-61 0-52 59-55 108-45v43h-11" id="t"/><path fill="#333" d="M88-24C86-8 77 5 59 5S30-7 30-24s11-29 29-29 27 13 29 29zM59-169c40 0 34 59 0 59-17 0-29-12-29-30 1-17 11-29 29-29" id="u"/><path fill="#333" d="M92-112c43 4 61-13 61-54s-18-54-61-50v104zm118-54c0 63-50 78-118 74v74l39 5V0H8v-13l28-5v-200l-30-5v-13c88 3 205-20 204 70" id="v"/><path fill="#333" d="M64-135c49-21 105 0 105 62 0 50-26 77-73 77-64 0-82-53-84-120-2-89 54-142 143-115v54h-15c4-38-43-60-62-22-8 16-12 39-14 64zm54 65c3-37-19-64-54-46 3 43-3 92 31 102 23-3 21-26 23-56" id="w"/><path fill="#333" d="M115-98C63-79 7-104 10-164c2-49 28-74 78-74 66 1 76 53 79 120C171-24 106 24 19-4v-54h15c-5 39 47 61 67 25 9-16 12-39 14-65zM88-221c-36 2-39 108 1 108 8 0 21 1 26-5 0-34-2-60-6-77s-11-26-21-26" id="x"/><g id="c"><use transform="matrix(0.04938271604938272,0,0,0.04938271604938272,0,0)" xlink:href="#s"/><use transform="matrix(0.04938271604938272,0,0,0.04938271604938272,9.876543209876544,0)" xlink:href="#t"/><use transform="matrix(0.04938271604938272,0,0,0.04938271604938272,16.790123456790127,0)" xlink:href="#u"/><use transform="matrix(0.04938271604938272,0,0,0.04938271604938272,22.66666666666667,0)" xlink:href="#v"/><use transform="matrix(0.04938271604938272,0,0,0.04938271604938272,33.48148148148149,0)" xlink:href="#w"/><use transform="matrix(0.04938271604938272,0,0,0.04938271604938272,42.37037037037038,0)" xlink:href="#x"/></g><path fill="#333" d="M101-152c-33 3-35 37-35 73 0 33 4 62 35 63 9 0 22-3 27-7v-126c-8-1-18-3-27-3zM15-83c-5-75 54-97 127-83 11-4 21-9 37-7V61l18 4v12h-93V65l24-4 2-71C80 24 3-8 15-83" id="y"/><path fill="#333" d="M46-135c59-12 121 1 121 65C167 6 84 13 17-4l-3-57h17c4 25 9 49 44 47 30-2 40-23 40-54 0-46-35-65-71-47H26v-121h123v39H46v62" id="z"/><path fill="#333" d="M90-239c77 0 97 95 36 114 24 9 42 28 42 61 0 48-28 68-79 68-49 0-77-20-77-68 1-33 17-52 41-61-21-8-36-26-36-53 0-42 29-61 73-61zM89-14c26 0 29-23 29-50s-2-51-29-51c-26 0-27 24-27 51s2 50 27 50zm0-120c36-1 33-87 0-88-31 3-32 86 0 88" id="A"/><path fill="#333" d="M90-239c59 0 76 52 76 120S152 4 89 4C31 4 14-51 14-119c0-67 17-120 76-120zm12 218c20-45 19-147 0-194-29-20-34 20-36 53-1 47-4 109 11 141 6 10 21 10 25 0" id="B"/><g id="d"><use transform="matrix(0.04938271604938272,0,0,0.04938271604938272,0,0)" xlink:href="#s"/><use transform="matrix(0.04938271604938272,0,0,0.04938271604938272,9.876543209876544,0)" xlink:href="#y"/><use transform="matrix(0.04938271604938272,0,0,0.04938271604938272,19.75308641975309,0)" xlink:href="#u"/><use transform="matrix(0.04938271604938272,0,0,0.04938271604938272,25.629629629629633,0)" xlink:href="#v"/><use transform="matrix(0.04938271604938272,0,0,0.04938271604938272,36.44444444444445,0)" xlink:href="#z"/><use transform="matrix(0.04938271604938272,0,0,0.04938271604938272,45.33333333333334,0)" xlink:href="#A"/><use transform="matrix(0.04938271604938272,0,0,0.04938271604938272,54.22222222222223,0)" xlink:href="#B"/></g><path d="M19-231c61-19 146-3 123 76-8 29-32 42-62 48l-3 45H63l-4-58c33-4 57-15 54-56 6-47-42-58-77-39l-6 29H19v-45zM72-37c14 0 21 9 21 21S84 5 72 5 50-2 51-16c0-13 8-21 21-21" id="C"/><path d="M84-170c49 0 66 33 63 87H46c-8 60 38 80 95 63v10C128-2 108 4 88 4 34 4 14-29 14-84c-1-54 22-86 70-86zm33 73c12-57-57-82-69-24-1 7-2 15-2 24h71" id="D"/><path d="M124-13C89 8 26 15 26-45v-108c-8-3-24 2-21-12h50v118c-3 37 42 32 69 25v-131l-25-4v-8h54v153c8 3 24-2 21 12h-48" id="E"/><path d="M10-9l31-5v-208l-31-4v-10h177v57h-11l-6-38c-28-4-63-3-95-3v92h63l6-28h11v73h-11l-6-29H75v96l105-3 10-43h12l-3 62H10v-9" id="F"/><path d="M125-118c4-37-41-34-68-26v132l23 4v8H8C5-13 21-9 28-12v-141c-7-3-23 1-20-12h47l2 13c31-23 98-29 98 31v109c7 3 23-1 20 12h-72v-8l22-4v-106" id="G"/><g id="e"><use transform="matrix(0.07407407407407408,0,0,0.07407407407407408,0,0)" xlink:href="#C"/><use transform="matrix(0.07407407407407408,0,0,0.07407407407407408,11.777777777777779,0)" xlink:href="#D"/><use transform="matrix(0.07407407407407408,0,0,0.07407407407407408,23.555555555555557,0)" xlink:href="#i"/><use transform="matrix(0.07407407407407408,0,0,0.07407407407407408,36.88888888888889,0)" xlink:href="#E"/><use transform="matrix(0.07407407407407408,0,0,0.07407407407407408,50.22222222222223,0)" xlink:href="#F"/><use transform="matrix(0.07407407407407408,0,0,0.07407407407407408,66.44444444444446,0)" xlink:href="#G"/><use transform="matrix(0.07407407407407408,0,0,0.07407407407407408,79.7777777777778,0)" xlink:href="#i"/><use transform="matrix(0.07407407407407408,0,0,0.07407407407407408,93.11111111111114,0)" xlink:href="#D"/><use transform="matrix(0.07407407407407408,0,0,0.07407407407407408,104.88888888888891,0)" xlink:href="#i"/></g><path fill="#333" d="M23-231c66-19 162-2 134 80C139-97 87-78 49-40h116V0H15v-33c34-46 90-67 94-145 2-38-37-54-63-33l-8 34H23v-54" id="H"/><g id="f"><use transform="matrix(0.04938271604938272,0,0,0.04938271604938272,0,0)" xlink:href="#s"/><use transform="matrix(0.04938271604938272,0,0,0.04938271604938272,9.876543209876544,0)" xlink:href="#y"/><use transform="matrix(0.04938271604938272,0,0,0.04938271604938272,19.75308641975309,0)" xlink:href="#u"/><use transform="matrix(0.04938271604938272,0,0,0.04938271604938272,25.629629629629633,0)" xlink:href="#v"/><use transform="matrix(0.04938271604938272,0,0,0.04938271604938272,36.44444444444445,0)" xlink:href="#z"/><use transform="matrix(0.04938271604938272,0,0,0.04938271604938272,45.33333333333334,0)" xlink:href="#A"/><use transform="matrix(0.04938271604938272,0,0,0.04938271604938272,54.22222222222223,0)" xlink:href="#H"/></g><path d="M178-68c0 79-95 82-154 59v-54h12c1 35 22 52 60 52 50 0 69-58 33-82-39-24-105-21-105-85 0-67 86-66 142-53v49h-12l-6-29c-31-27-121-7-89 42 28 43 119 24 119 101" id="I"/><path d="M54-38c-1 25 24 26 44 20v12C71 10 25 9 25-35v-115H4c-2-14 14-10 21-15l18-38h11v38h38v15H54v112" id="J"/><path d="M32-163c41-10 102-14 102 39v112c8 3 24-2 21 12h-45l-4-17C83 13 3 13 13-46c-2-50 45-50 92-51 4-36-5-70-42-56-6 2-12 4-16 6-4 7 0 23-15 20v-36zM42-47c0 41 41 33 63 22v-59c-34 1-63-1-63 37" id="K"/><path d="M57-145c16-10 35-24 60-25v45c-19 1-8-30-40-17l-20 6v124l29 4v8H7v-8l21-4v-141c-8-3-24 2-21-12h48" id="L"/><g id="g"><use transform="matrix(0.07407407407407408,0,0,0.07407407407407408,0,0)" xlink:href="#C"/><use transform="matrix(0.07407407407407408,0,0,0.07407407407407408,11.777777777777779,0)" xlink:href="#D"/><use transform="matrix(0.07407407407407408,0,0,0.07407407407407408,23.555555555555557,0)" xlink:href="#i"/><use transform="matrix(0.07407407407407408,0,0,0.07407407407407408,36.88888888888889,0)" xlink:href="#E"/><use transform="matrix(0.07407407407407408,0,0,0.07407407407407408,50.22222222222223,0)" xlink:href="#I"/><use transform="matrix(0.07407407407407408,0,0,0.07407407407407408,65.03703703703704,0)" xlink:href="#J"/><use transform="matrix(0.07407407407407408,0,0,0.07407407407407408,72.44444444444444,0)" xlink:href="#K"/><use transform="matrix(0.07407407407407408,0,0,0.07407407407407408,84.22222222222223,0)" xlink:href="#L"/><use transform="matrix(0.07407407407407408,0,0,0.07407407407407408,93.03703703703704,0)" xlink:href="#J"/><use transform="matrix(0.07407407407407408,0,0,0.07407407407407408,100.44444444444444,0)" xlink:href="#D"/><use transform="matrix(0.07407407407407408,0,0,0.07407407407407408,112.22222222222221,0)" xlink:href="#i"/></g></defs></g></svg>