<svg xmlns="http://www.w3.org/2000/svg" xmlns:xlink="http://www.w3.org/1999/xlink" xmlns:lucid="lucid" width="774" height="478"><g transform="translate(-671 -1330)" lucid:page-tab-id="0_0"><path d="M832.72 1426.9c0 31.9-25.88 57.8-57.8 57.8-31.92 0-57.8-25.9-57.8-57.8 0-31.92 25.88-57.8 57.8-57.8 31.92 0 57.8 25.88 57.8 57.8z" stroke="#8babc7" stroke-width="2" fill="#deebf7"/><use xlink:href="#a" transform="matrix(1,0,0,1,722.1282753140238,1374.0999415995875) translate(44.72222222222222 61.8125)"/><path d="M1409.32 1426.9c0 31.9-25.88 57.8-57.8 57.8-31.92 0-57.8-25.9-57.8-57.8 0-31.92 25.88-57.8 57.8-57.8 31.92 0 57.8 25.88 57.8 57.8z" stroke="#8babc7" stroke-width="2" fill="#deebf7"/><use xlink:href="#b" transform="matrix(1,0,0,1,1298.7262851689238,1374.0999415995875) translate(42.5 61.8125)"/><path d="M834.72 1426.9h151.2" stroke="#5e5e5e" stroke-width="2" fill="none"/><path d="M834.74 1427.87h-1.06l.04-.96v-.84l-.02-.14h1.04z" stroke="#5e5e5e" stroke-width=".05" fill="#5e5e5e"/><path d="M1001.2 1426.9l-14.28 4.63v-9.27z" stroke="#5e5e5e" stroke-width="2" fill="#5e5e5e"/><use xlink:href="#c" transform="matrix(1,0,0,1,913.6653123702108,1401.561550246983) translate(0.004999999999999893 14.222222222222223)"/><path d="M1121.02 1426.9c0 31.9-25.88 57.8-57.8 57.8-31.92 0-57.8-25.9-57.8-57.8 0-31.92 25.88-57.8 57.8-57.8 31.92 0 57.8 25.88 57.8 57.8z" stroke="#8babc7" stroke-width="2" fill="#deebf7"/><use xlink:href="#d" transform="matrix(1,0,0,1,1010.4272802414737,1374.0999415995875) translate(42.5 61.8125)"/><path d="M1123.02 1426.9h151.2" stroke="#5e5e5e" stroke-width="2" fill="none"/><path d="M1123.04 1427.87h-1.06l.04-.96v-.84l-.02-.14h1.04z" stroke="#5e5e5e" stroke-width=".05" fill="#5e5e5e"/><path d="M1289.5 1426.9l-14.28 4.63v-9.27z" stroke="#5e5e5e" stroke-width="2" fill="#5e5e5e"/><use xlink:href="#e" transform="matrix(1,0,0,1,1198.5075271742041,1401.561550246983) translate(0.005000000000000782 14.222222222222223)"/><path d="M1409.32 1582.37c0 31.92-25.88 57.8-57.8 57.8-31.92 0-57.8-25.88-57.8-57.8 0-31.92 25.88-57.8 57.8-57.8 31.92 0 57.8 25.88 57.8 57.8z" stroke="#8babc7" stroke-width="2" fill="#deebf7"/><use xlink:href="#f" transform="matrix(1,0,0,1,1298.7262851689238,1529.5761626299213) translate(35.5 61.8125)"/><path d="M1409.32 1718.92c0 31.92-25.88 57.8-57.8 57.8-31.92 0-57.8-25.88-57.8-57.8 0-31.9 25.88-57.8 57.8-57.8 31.92 0 57.8 25.9 57.8 57.8z" stroke="#8babc7" stroke-width="2" fill="#deebf7"/><use xlink:href="#g" transform="matrix(1,0,0,1,1298.7262851689236,1666.1304307927342) translate(35.5 61.8125)"/><path d="M1084.34 1482.77v93.6a6 6 0 0 0 6 6h183.88" stroke="#5e5e5e" stroke-width="2" fill="none"/><path d="M1085.3 1482.8h-1.94v-.67l.55-.18 1.4-.6z" stroke="#5e5e5e" stroke-width=".05" fill="#5e5e5e"/><path d="M1289.5 1582.37l-14.28 4.64v-9.26z" stroke="#5e5e5e" stroke-width="2" fill="#5e5e5e"/><use xlink:href="#h" transform="matrix(1,0,0,1,1201.569150528352,1557.0377712773168) translate(0.005000000000000782 14.222222222222223)"/><path d="M1063.22 1486.7v226.22a6 6 0 0 0 6 6h205" stroke="#5e5e5e" stroke-width="2" fill="none"/><path d="M1063.2 1485.7l.85-.02h.15v1.03h-1.95v-1.05z" stroke="#5e5e5e" stroke-width=".05" fill="#5e5e5e"/><path d="M1289.5 1718.92l-14.28 4.64v-9.27z" stroke="#5e5e5e" stroke-width="2" fill="#5e5e5e"/><use xlink:href="#i" transform="matrix(1,0,0,1,1214.595033702569,1693.5920394401298) translate(0.005000000000000782 14.222222222222223)"/><defs><path d="M41-130c7 48 86 23 86 84 0 56-69 57-112 41v-40c20 0 9 29 31 31 35 19 77-26 41-50-27-18-72-13-72-59 0-50 58-52 100-41v36c-19 1-8-25-28-25-21-7-50-1-46 23" id="j"/><use transform="matrix(0.1111111111111111,0,0,0.1111111111111111,0,0)" xlink:href="#j" id="a"/><path d="M90-170c52 0 76 32 76 87 0 54-24 87-77 87-51 0-75-34-75-87 0-54 24-87 76-87zM89-10c39 0 46-35 46-73 0-39-7-73-46-73-39 1-44 34-44 73s6 72 44 73" id="k"/><use transform="matrix(0.1111111111111111,0,0,0.1111111111111111,0,0)" xlink:href="#k" id="b"/><path fill="#333" d="M135-194c53 0 70 44 70 98 0 56-19 98-73 100-31 1-45-17-59-34 3 33 2 69 2 105H25l-1-265h48c2 10 0 23 3 31 11-24 29-35 60-35zM114-30c33 0 39-31 40-66 0-38-9-64-40-64-56 0-55 130 0 130" id="l"/><use transform="matrix(0.04938271604938272,0,0,0.04938271604938272,0,0)" xlink:href="#l" id="c"/><path d="M53-14c58 12 82-15 82-73 0-52-35-77-82-58v131zM89 4C64 4 42-2 24-9v-229l-24-4v-8h53l-1 94c48-33 114-4 114 69 0 57-23 91-77 91" id="m"/><use transform="matrix(0.1111111111111111,0,0,0.1111111111111111,0,0)" xlink:href="#m" id="d"/><path fill="#333" d="M137-138c1-29-70-34-71-4 15 46 118 7 119 86 1 83-164 76-172 9l43-7c4 19 20 25 44 25 33 8 57-30 24-41C81-84 22-81 20-136c-2-80 154-74 161-7" id="n"/><g id="e"><use transform="matrix(0.04938271604938272,0,0,0.04938271604938272,0,0)" xlink:href="#l"/><use transform="matrix(0.034567901234567905,0,0,0.034567901234567905,10.814814814814815,2.488888888888889)" xlink:href="#n"/></g><path d="M110-14l48 5v9H32v-9l48-5v-192l-48 17v-10l69-39h9v224" id="o"/><g id="f"><use transform="matrix(0.1111111111111111,0,0,0.1111111111111111,0,0)" xlink:href="#k"/><use transform="matrix(0.07777777777777777,0,0,0.07777777777777777,20,5.599999999999999)" xlink:href="#o"/></g><path d="M24-231c66-21 156 2 128 81C132-92 78-66 39-27h121V0H16v-26l59-54c26-25 47-47 47-97 0-48-47-57-81-37l-6 29H24v-46" id="p"/><g id="g"><use transform="matrix(0.1111111111111111,0,0,0.1111111111111111,0,0)" xlink:href="#k"/><use transform="matrix(0.07777777777777777,0,0,0.07777777777777777,20,5.599999999999999)" xlink:href="#p"/></g><path fill="#333" d="M84 4C32 4 15-41 15-95c0-55 18-99 73-99 29 0 47 12 58 34l2-30h48l-1 265h-49V-32C136-9 114 4 84 4zm21-34c32 0 41-29 41-66 0-36-9-64-40-64-33 0-39 30-40 65 0 43 13 65 39 65" id="q"/><path fill="#333" d="M23 0v-37h61v-169l-59 37v-38l62-41h46v211h57V0H23" id="r"/><g id="h"><use transform="matrix(0.04938271604938272,0,0,0.04938271604938272,0,0)" xlink:href="#q"/><use transform="matrix(0.034567901234567905,0,0,0.034567901234567905,10.814814814814815,2.488888888888889)" xlink:href="#r"/></g><path fill="#333" d="M182-182c0 78-84 86-111 141h115V0H12c-6-101 99-100 120-180 1-22-12-31-33-32-23 0-32 14-35 34l-49-3c5-45 32-70 84-70 51 0 83 22 83 69" id="s"/><g id="i"><use transform="matrix(0.04938271604938272,0,0,0.04938271604938272,0,0)" xlink:href="#q"/><use transform="matrix(0.034567901234567905,0,0,0.034567901234567905,10.814814814814815,2.488888888888889)" xlink:href="#s"/></g></defs></g></svg>