<svg xmlns="http://www.w3.org/2000/svg" xmlns:xlink="http://www.w3.org/1999/xlink" xmlns:lucid="lucid" width="771" height="545"><g transform="translate(-677 -1263)" lucid:page-tab-id="0_0"><path d="M832.72 1426.9c0 31.9-25.88 57.8-57.8 57.8-31.92 0-57.8-25.9-57.8-57.8 0-31.92 25.88-57.8 57.8-57.8 31.92 0 57.8 25.88 57.8 57.8z" stroke="#8babc7" stroke-width="2" fill="#deebf7"/><use xlink:href="#a" transform="matrix(1,0,0,1,722.1282753140238,1374.0999415995875) translate(44.72222222222222 61.8125)"/><path d="M1409.32 1426.9c0 31.9-25.88 57.8-57.8 57.8-31.92 0-57.8-25.9-57.8-57.8 0-31.92 25.88-57.8 57.8-57.8 31.92 0 57.8 25.88 57.8 57.8z" stroke="#8babc7" stroke-width="2" fill="#deebf7"/><use xlink:href="#b" transform="matrix(1,0,0,1,1298.7262851689238,1374.0999415995875) translate(42.5 61.8125)"/><path d="M834.72 1426.9h151.2" stroke="#5e5e5e" stroke-width="2" fill="none"/><path d="M834.74 1427.87h-1.06l.04-.96v-.84l-.02-.14h1.04z" stroke="#5e5e5e" stroke-width=".05" fill="#5e5e5e"/><path d="M1001.2 1426.9l-14.28 4.63v-9.27z" stroke="#5e5e5e" stroke-width="2" fill="#5e5e5e"/><use xlink:href="#c" transform="matrix(1,0,0,1,914.13444817268,1401.561550246983) translate(0.004999999999999893 14.222222222222223)"/><path d="M1121.02 1426.9c0 31.9-25.88 57.8-57.8 57.8-31.92 0-57.8-25.9-57.8-57.8 0-31.92 25.88-57.8 57.8-57.8 31.92 0 57.8 25.88 57.8 57.8z" stroke="#8babc7" stroke-width="2" fill="#deebf7"/><use xlink:href="#d" transform="matrix(1,0,0,1,1010.4272802414737,1374.0999415995875) translate(42.5 61.8125)"/><path d="M1123.02 1426.9h151.2" stroke="#5e5e5e" stroke-width="2" fill="none"/><path d="M1123.04 1427.87h-1.06l.04-.96v-.84l-.02-.14h1.04z" stroke="#5e5e5e" stroke-width=".05" fill="#5e5e5e"/><path d="M1289.5 1426.9l-14.28 4.63v-9.27z" stroke="#5e5e5e" stroke-width="2" fill="#5e5e5e"/><use xlink:href="#e" transform="matrix(1,0,0,1,1200.0137000137104,1401.561550246983) translate(0.004999999999999893 14.222222222222223)"/><path d="M1409.32 1582.37c0 31.92-25.88 57.8-57.8 57.8-31.92 0-57.8-25.88-57.8-57.8 0-31.92 25.88-57.8 57.8-57.8 31.92 0 57.8 25.88 57.8 57.8z" stroke="#8babc7" stroke-width="2" fill="#deebf7"/><use xlink:href="#f" transform="matrix(1,0,0,1,1298.7262851689238,1529.5761626299213) translate(35.5 61.8125)"/><path d="M1409.32 1718.92c0 31.92-25.88 57.8-57.8 57.8-31.92 0-57.8-25.88-57.8-57.8 0-31.9 25.88-57.8 57.8-57.8 31.92 0 57.8 25.9 57.8 57.8z" stroke="#8babc7" stroke-width="2" fill="#deebf7"/><use xlink:href="#g" transform="matrix(1,0,0,1,1298.7262851689236,1666.1304307927342) translate(35.5 61.8125)"/><path d="M1084.34 1482.77v93.6a6 6 0 0 0 6 6h183.88" stroke="#5e5e5e" stroke-width="2" fill="none"/><path d="M1085.3 1482.8h-1.94v-.67l.55-.18 1.4-.6z" stroke="#5e5e5e" stroke-width=".05" fill="#5e5e5e"/><path d="M1289.5 1582.37l-14.28 4.64v-9.26z" stroke="#5e5e5e" stroke-width="2" fill="#5e5e5e"/><use xlink:href="#h" transform="matrix(1,0,0,1,1197.0334546573308,1557.0377712773168) translate(0.005000000000000782 14.222222222222223)"/><path d="M1063.22 1486.7v226.22a6 6 0 0 0 6 6h205" stroke="#5e5e5e" stroke-width="2" fill="none"/><path d="M1063.2 1485.7l.85-.02h.15v1.03h-1.95v-1.05z" stroke="#5e5e5e" stroke-width=".05" fill="#5e5e5e"/><path d="M1289.5 1718.92l-14.28 4.64v-9.27z" stroke="#5e5e5e" stroke-width="2" fill="#5e5e5e"/><use xlink:href="#i" transform="matrix(1,0,0,1,1199.5772022682484,1693.5920394401298) translate(0.005000000000000782 14.222222222222223)"/><path d="M774.92 1367.1v-33a6 6 0 0 1 6-6h564.6a6 6 0 0 1 6 6v15.5" stroke="#5e5e5e" stroke-width="2" fill="none"/><path d="M775.9 1368.14l-.96-.04h-1v-1.03h1.95z" stroke="#5e5e5e" stroke-width=".05" fill="#5e5e5e"/><path d="M1351.52 1364.86l-4.63-14.26h9.26z" stroke="#5e5e5e" stroke-width="2" fill="#5e5e5e"/><use xlink:href="#j" transform="matrix(1,0,0,1,1048.9506172946697,1302.7665853394867) translate(0.005000000000000782 14.222222222222223)"/><defs><path d="M41-130c7 48 86 23 86 84 0 56-69 57-112 41v-40c20 0 9 29 31 31 35 19 77-26 41-50-27-18-72-13-72-59 0-50 58-52 100-41v36c-19 1-8-25-28-25-21-7-50-1-46 23" id="k"/><use transform="matrix(0.1111111111111111,0,0,0.1111111111111111,0,0)" xlink:href="#k" id="a"/><path d="M90-170c52 0 76 32 76 87 0 54-24 87-77 87-51 0-75-34-75-87 0-54 24-87 76-87zM89-10c39 0 46-35 46-73 0-39-7-73-46-73-39 1-44 34-44 73s6 72 44 73" id="l"/><use transform="matrix(0.1111111111111111,0,0,0.1111111111111111,0,0)" xlink:href="#l" id="b"/><path fill="#333" d="M186-86c2 69-46 103-114 85l1 62 25 4v12H5V65l18-4v-210l-18-5v-11h67v8c12-8 26-13 46-13 49 2 67 30 68 84zm-83 71c28 0 31-33 31-69 0-34-2-66-30-66-12 0-23 3-31 7v124c9 2 20 4 30 4" id="m"/><use transform="matrix(0.04938271604938272,0,0,0.04938271604938272,0,0)" xlink:href="#m" id="c"/><path d="M53-14c58 12 82-15 82-73 0-52-35-77-82-58v131zM89 4C64 4 42-2 24-9v-229l-24-4v-8h53l-1 94c48-33 114-4 114 69 0 57-23 91-77 91" id="n"/><use transform="matrix(0.1111111111111111,0,0,0.1111111111111111,0,0)" xlink:href="#n" id="d"/><path fill="#333" d="M102-142c-14-17-68-15-54 18 24 26 83 17 83 72 0 62-72 62-120 47v-45h12c4 23 16 37 43 37 35 0 39-37 9-46-31-9-65-19-64-61 0-52 59-55 108-45v43h-11" id="o"/><g id="e"><use transform="matrix(0.04938271604938272,0,0,0.04938271604938272,0,0)" xlink:href="#m"/><use transform="matrix(0.034567901234567905,0,0,0.034567901234567905,9.876543209876544,2.488888888888889)" xlink:href="#o"/></g><path d="M110-14l48 5v9H32v-9l48-5v-192l-48 17v-10l69-39h9v224" id="p"/><g id="f"><use transform="matrix(0.1111111111111111,0,0,0.1111111111111111,0,0)" xlink:href="#l"/><use transform="matrix(0.07777777777777777,0,0,0.07777777777777777,20,5.599999999999999)" xlink:href="#p"/></g><path d="M24-231c66-21 156 2 128 81C132-92 78-66 39-27h121V0H16v-26l59-54c26-25 47-47 47-97 0-48-47-57-81-37l-6 29H24v-46" id="q"/><g id="g"><use transform="matrix(0.1111111111111111,0,0,0.1111111111111111,0,0)" xlink:href="#l"/><use transform="matrix(0.07777777777777777,0,0,0.07777777777777777,20,5.599999999999999)" xlink:href="#q"/></g><path fill="#333" d="M101-152c-33 3-35 37-35 73 0 33 4 62 35 63 9 0 22-3 27-7v-126c-8-1-18-3-27-3zM15-83c-5-75 54-97 127-83 11-4 21-9 37-7V61l18 4v12h-93V65l24-4 2-71C80 24 3-8 15-83" id="r"/><path fill="#333" d="M120-19l41 4V0H29v-15l41-4v-178l-41 13v-15l66-39h25v219" id="s"/><g id="h"><use transform="matrix(0.04938271604938272,0,0,0.04938271604938272,0,0)" xlink:href="#r"/><use transform="matrix(0.034567901234567905,0,0,0.034567901234567905,9.876543209876544,2.488888888888889)" xlink:href="#s"/></g><path fill="#333" d="M23-231c66-19 162-2 134 80C139-97 87-78 49-40h116V0H15v-33c34-46 90-67 94-145 2-38-37-54-63-33l-8 34H23v-54" id="t"/><g id="i"><use transform="matrix(0.04938271604938272,0,0,0.04938271604938272,0,0)" xlink:href="#r"/><use transform="matrix(0.034567901234567905,0,0,0.034567901234567905,9.876543209876544,2.488888888888889)" xlink:href="#t"/></g><path fill="#333" d="M154-149l38 94 32-94-20-5v-11h54v11l-13 4L190 4h-21l-38-93L93 4H72L13-149c-7-2-15-4-12-16h82v11l-20 5 36 94 38-94h17" id="u"/><path fill="#333" d="M15-82c-4-69 47-101 113-83l-1-69-17-4v-12h68v234l18 4V0h-63l-4-9C77 23 5-9 15-82zm112-66c-43-16-64 17-61 65 2 33 3 67 32 67 12 0 22-3 29-8v-124" id="v"/><path fill="#333" d="M78-41c-2 24 21 26 40 20C122 3 98 2 77 4 5 10 32-84 27-147H6v-11l25-7 21-38h26v38h35v18H78v106" id="w"/><g id="j"><use transform="matrix(0.04938271604938272,0,0,0.04938271604938272,0,0)" xlink:href="#u"/><use transform="matrix(0.04938271604938272,0,0,0.04938271604938272,12.790123456790125,0)" xlink:href="#v"/><use transform="matrix(0.04938271604938272,0,0,0.04938271604938272,22.66666666666667,0)" xlink:href="#w"/></g></defs></g></svg>