<svg xmlns="http://www.w3.org/2000/svg" xmlns:xlink="http://www.w3.org/1999/xlink" xmlns:lucid="lucid" width="781" height="484"><g transform="translate(-668 -1324)" lucid:page-tab-id="0_0"><path d="M1136 1655a6 6 0 0 1-6-6v-278a6 6 0 0 0-6-6h-123a6 6 0 0 0-6 6v403a6 6 0 0 0 6 6h408a6 6 0 0 0 6-6v-113a6 6 0 0 0-6-6z" stroke="#1071e5" stroke-width="2" fill="#f7def3" fill-opacity=".37"/><path d="M700.3 1366.88a6 6 0 0 1 6-6h713.84a6 6 0 0 1 6 6v119.8a6 6 0 0 1-6 6H706.3a6 6 0 0 1-6-6z" stroke="#e81313" stroke-width="2" fill-opacity="0"/><use xlink:href="#a" transform="matrix(1,0,0,1,712.3026408184966,1372.877125606174) translate(310.9074074074074 58.27777777777778)"/><path d="M1136 1520a6 6 0 0 1-6-6v-143a6 6 0 0 0-6-6h-123a6 6 0 0 0-6 6v268a6 6 0 0 0 6 6h408a6 6 0 0 0 6-6v-113a6 6 0 0 0-6-6z" stroke="#1071e5" stroke-width="2" fill="#def7ed" fill-opacity=".55"/><path d="M832.72 1426.9c0 31.9-25.88 57.8-57.8 57.8-31.92 0-57.8-25.9-57.8-57.8 0-31.92 25.88-57.8 57.8-57.8 31.92 0 57.8 25.88 57.8 57.8z" stroke="#8babc7" stroke-width="2" fill="#deebf7"/><use xlink:href="#b" transform="matrix(1,0,0,1,722.1282753140238,1374.0999415995875) translate(44.72222222222222 61.8125)"/><path d="M1409.32 1426.9c0 31.9-25.88 57.8-57.8 57.8-31.92 0-57.8-25.9-57.8-57.8 0-31.92 25.88-57.8 57.8-57.8 31.92 0 57.8 25.88 57.8 57.8z" stroke="#8babc7" stroke-width="2" fill="#deebf7"/><use xlink:href="#c" transform="matrix(1,0,0,1,1298.7262851689238,1374.0999415995875) translate(42.5 61.8125)"/><path d="M834.72 1426.9h151.2" stroke="#5e5e5e" stroke-width="2" fill="none"/><path d="M834.74 1427.87h-1.06l.04-.96v-.84l-.02-.14h1.04z" stroke="#5e5e5e" stroke-width=".05" fill="#5e5e5e"/><path d="M1001.2 1426.9l-14.28 4.63v-9.27z" stroke="#5e5e5e" stroke-width="2" fill="#5e5e5e"/><use xlink:href="#d" transform="matrix(1,0,0,1,907.7393864442848,1401.561550246983) translate(0.005000000000000782 14.222222222222223)"/><path d="M1121.02 1426.9c0 31.9-25.88 57.8-57.8 57.8-31.92 0-57.8-25.9-57.8-57.8 0-31.92 25.88-57.8 57.8-57.8 31.92 0 57.8 25.88 57.8 57.8z" stroke="#8babc7" stroke-width="2" fill="#deebf7"/><use xlink:href="#e" transform="matrix(1,0,0,1,1010.4272802414737,1374.0999415995875) translate(42.5 61.8125)"/><path d="M1123.02 1426.9h151.2" stroke="#5e5e5e" stroke-width="2" fill="none"/><path d="M1123.04 1427.87h-1.06l.04-.96v-.84l-.02-.14h1.04z" stroke="#5e5e5e" stroke-width=".05" fill="#5e5e5e"/><path d="M1289.5 1426.9l-14.28 4.63v-9.27z" stroke="#5e5e5e" stroke-width="2" fill="#5e5e5e"/><use xlink:href="#f" transform="matrix(1,0,0,1,1197.075428408772,1401.561550246983) translate(0.005000000000000782 14.222222222222223)"/><path d="M1409.32 1582.37c0 31.92-25.88 57.8-57.8 57.8-31.92 0-57.8-25.88-57.8-57.8 0-31.92 25.88-57.8 57.8-57.8 31.92 0 57.8 25.88 57.8 57.8z" stroke="#8babc7" stroke-width="2" fill="#deebf7"/><use xlink:href="#g" transform="matrix(1,0,0,1,1298.7262851689238,1529.5761626299213) translate(35.5 61.8125)"/><path d="M1409.32 1718.92c0 31.92-25.88 57.8-57.8 57.8-31.92 0-57.8-25.88-57.8-57.8 0-31.9 25.88-57.8 57.8-57.8 31.92 0 57.8 25.9 57.8 57.8z" stroke="#8babc7" stroke-width="2" fill="#deebf7"/><use xlink:href="#h" transform="matrix(1,0,0,1,1298.7262851689236,1666.1304307927342) translate(35.5 61.8125)"/><path d="M1084.34 1482.77v93.6a6 6 0 0 0 6 6h183.88" stroke="#5e5e5e" stroke-width="2" fill="none"/><path d="M1085.3 1482.8h-1.94v-.67l.55-.18 1.4-.6z" stroke="#5e5e5e" stroke-width=".05" fill="#5e5e5e"/><path d="M1289.5 1582.37l-14.28 4.64v-9.26z" stroke="#5e5e5e" stroke-width="2" fill="#5e5e5e"/><use xlink:href="#i" transform="matrix(1,0,0,1,1193.0922959186832,1557.0377712773168) translate(0.005000000000000782 14.222222222222223)"/><path d="M1063.22 1486.7v226.22a6 6 0 0 0 6 6h205" stroke="#5e5e5e" stroke-width="2" fill="none"/><path d="M1063.2 1485.7l.85-.02h.15v1.03h-1.95v-1.05z" stroke="#5e5e5e" stroke-width=".05" fill="#5e5e5e"/><path d="M1289.5 1718.92l-14.28 4.64v-9.27z" stroke="#5e5e5e" stroke-width="2" fill="#5e5e5e"/><use xlink:href="#j" transform="matrix(1,0,0,1,1192.9745873899456,1693.5920394401298) translate(0.004999999999999005 14.222222222222223)"/><defs><path d="M30-248c87 1 191-15 191 75 0 78-77 80-158 76V0H30v-248zm33 125c57 0 124 11 124-50 0-59-68-47-124-48v98" id="k"/><path d="M114-163C36-179 61-72 57 0H25l-1-190h30c1 12-1 29 2 39 6-27 23-49 58-41v29" id="l"/><path d="M100-194c62-1 85 37 85 99 1 63-27 99-86 99S16-35 15-95c0-66 28-99 85-99zM99-20c44 1 53-31 53-75 0-43-8-75-51-75s-53 32-53 75 10 74 51 75" id="m"/><path d="M9 0v-24l116-142H16v-24h144v24L44-24h123V0H9" id="n"/><path d="M100-194c63 0 86 42 84 106H49c0 40 14 67 53 68 26 1 43-12 49-29l28 8c-11 28-37 45-77 45C44 4 14-33 15-96c1-61 26-98 85-98zm52 81c6-60-76-77-97-28-3 7-6 17-6 28h103" id="o"/><path d="M135-143c-3-34-86-38-87 0 15 53 115 12 119 90S17 21 10-45l28-5c4 36 97 45 98 0-10-56-113-15-118-90-4-57 82-63 122-42 12 7 21 19 24 35" id="p"/><g id="a"><use transform="matrix(0.06172839506172839,0,0,0.06172839506172839,0,0)" xlink:href="#k"/><use transform="matrix(0.06172839506172839,0,0,0.06172839506172839,14.814814814814813,0)" xlink:href="#l"/><use transform="matrix(0.06172839506172839,0,0,0.06172839506172839,22.160493827160494,0)" xlink:href="#m"/><use transform="matrix(0.06172839506172839,0,0,0.06172839506172839,34.50617283950617,0)" xlink:href="#n"/><use transform="matrix(0.06172839506172839,0,0,0.06172839506172839,45.61728395061728,0)" xlink:href="#o"/><use transform="matrix(0.06172839506172839,0,0,0.06172839506172839,57.962962962962955,0)" xlink:href="#p"/><use transform="matrix(0.06172839506172839,0,0,0.06172839506172839,69.07407407407406,0)" xlink:href="#p"/></g><path d="M41-130c7 48 86 23 86 84 0 56-69 57-112 41v-40c20 0 9 29 31 31 35 19 77-26 41-50-27-18-72-13-72-59 0-50 58-52 100-41v36c-19 1-8-25-28-25-21-7-50-1-46 23" id="q"/><use transform="matrix(0.1111111111111111,0,0,0.1111111111111111,0,0)" xlink:href="#q" id="b"/><path d="M90-170c52 0 76 32 76 87 0 54-24 87-77 87-51 0-75-34-75-87 0-54 24-87 76-87zM89-10c39 0 46-35 46-73 0-39-7-73-46-73-39 1-44 34-44 73s6 72 44 73" id="r"/><use transform="matrix(0.1111111111111111,0,0,0.1111111111111111,0,0)" xlink:href="#r" id="c"/><path fill="#333" d="M107-230c-31-13-29 30-29 65h34v18H78v131l27 4V0H10v-12l18-4v-131H3v-12l25-7c-8-66 31-98 95-84v39h-11" id="s"/><path fill="#333" d="M186-86c2 69-46 103-114 85l1 62 25 4v12H5V65l18-4v-210l-18-5v-11h67v8c12-8 26-13 46-13 49 2 67 30 68 84zm-83 71c28 0 31-33 31-69 0-34-2-66-30-66-12 0-23 3-31 7v124c9 2 20 4 30 4" id="t"/><path fill="#333" d="M73-51c-3 31 27 38 51 25v-123l-16-5v-11h66v149l17 4V0h-65l-2-14C94 9 22 18 22-44v-105l-17-5v-11h68v114" id="u"/><g id="d"><use transform="matrix(0.04938271604938272,0,0,0.04938271604938272,0,0)" xlink:href="#s"/><use transform="matrix(0.034567901234567905,0,0,0.034567901234567905,5.8765432098765435,2.488888888888889)" xlink:href="#t"/><use transform="matrix(0.04938271604938272,0,0,0.04938271604938272,12.790123456790125,0)" xlink:href="#u"/></g><path d="M53-14c58 12 82-15 82-73 0-52-35-77-82-58v131zM89 4C64 4 42-2 24-9v-229l-24-4v-8h53l-1 94c48-33 114-4 114 69 0 57-23 91-77 91" id="v"/><use transform="matrix(0.1111111111111111,0,0,0.1111111111111111,0,0)" xlink:href="#v" id="e"/><path d="M107-230c-31-13-29 30-29 65h34v18H78v131l27 4V0H10v-12l18-4v-131H3v-12l25-7c-8-66 31-98 95-84v39h-11" id="w"/><path d="M102-142c-14-17-68-15-54 18 24 26 83 17 83 72 0 62-72 62-120 47v-45h12c4 23 16 37 43 37 35 0 39-37 9-46-31-9-65-19-64-61 0-52 59-55 108-45v43h-11" id="x"/><path d="M73-51c-3 31 27 38 51 25v-123l-16-5v-11h66v149l17 4V0h-65l-2-14C94 9 22 18 22-44v-105l-17-5v-11h68v114" id="y"/><g id="f"><use transform="matrix(0.04938271604938272,0,0,0.04938271604938272,0,0)" xlink:href="#w"/><use transform="matrix(0.034567901234567905,0,0,0.034567901234567905,5.8765432098765435,2.488888888888889)" xlink:href="#x"/><use transform="matrix(0.04938271604938272,0,0,0.04938271604938272,10.71604938271605,0)" xlink:href="#y"/></g><path d="M110-14l48 5v9H32v-9l48-5v-192l-48 17v-10l69-39h9v224" id="z"/><g id="g"><use transform="matrix(0.1111111111111111,0,0,0.1111111111111111,0,0)" xlink:href="#r"/><use transform="matrix(0.07777777777777777,0,0,0.07777777777777777,20,5.599999999999999)" xlink:href="#z"/></g><path d="M24-231c66-21 156 2 128 81C132-92 78-66 39-27h121V0H16v-26l59-54c26-25 47-47 47-97 0-48-47-57-81-37l-6 29H24v-46" id="A"/><g id="h"><use transform="matrix(0.1111111111111111,0,0,0.1111111111111111,0,0)" xlink:href="#r"/><use transform="matrix(0.07777777777777777,0,0,0.07777777777777777,20,5.599999999999999)" xlink:href="#A"/></g><path fill="#333" d="M101-152c-33 3-35 37-35 73 0 33 4 62 35 63 9 0 22-3 27-7v-126c-8-1-18-3-27-3zM15-83c-5-75 54-97 127-83 11-4 21-9 37-7V61l18 4v12h-93V65l24-4 2-71C80 24 3-8 15-83" id="B"/><path fill="#333" d="M27-236h46l-14 85H41" id="C"/><g id="i"><use transform="matrix(0.04938271604938272,0,0,0.04938271604938272,0,0)" xlink:href="#s"/><use transform="matrix(0.034567901234567905,0,0,0.034567901234567905,5.8765432098765435,2.488888888888889)" xlink:href="#B"/><use transform="matrix(0.04938271604938272,0,0,0.04938271604938272,12.790123456790125,0)" xlink:href="#u"/><use transform="matrix(0.04938271604938272,0,0,0.04938271604938272,22.666666666666668,0)" xlink:href="#C"/></g><path d="M101-152c-33 3-35 37-35 73 0 33 4 62 35 63 9 0 22-3 27-7v-126c-8-1-18-3-27-3zM15-83c-5-75 54-97 127-83 11-4 21-9 37-7V61l18 4v12h-93V65l24-4 2-71C80 24 3-8 15-83" id="D"/><path d="M27-236h46l-14 85H41" id="E"/><g id="j"><use transform="matrix(0.04938271604938272,0,0,0.04938271604938272,0,0)" xlink:href="#w"/><use transform="matrix(0.034567901234567905,0,0,0.034567901234567905,5.8765432098765435,2.488888888888889)" xlink:href="#D"/><use transform="matrix(0.04938271604938272,0,0,0.04938271604938272,12.790123456790125,0)" xlink:href="#y"/><use transform="matrix(0.04938271604938272,0,0,0.04938271604938272,22.666666666666668,0)" xlink:href="#E"/><use transform="matrix(0.04938271604938272,0,0,0.04938271604938272,27.60493827160494,0)" xlink:href="#E"/></g></defs></g></svg>