<svg xmlns="http://www.w3.org/2000/svg" xmlns:xlink="http://www.w3.org/1999/xlink" xmlns:lucid="lucid" width="1257" height="931"><g transform="translate(321 -679)" lucid:page-tab-id="0_0"><path d="M-92 1027.17c0 51.92-42.1 94-94 94s-94-42.08-94-94c0-51.9 42.1-94 94-94s94 42.1 94 94z" stroke="#8babc7" stroke-width="2" fill="#deebf7"/><use xlink:href="#a" transform="matrix(1,0,0,1,-275,938.173831743376) translate(50.592592592592595 93.64583333333334)"/><path d="M908 792.95c0 51.92-42.1 94-94 94s-94-42.08-94-94c0-51.9 42.1-94 94-94s94 42.1 94 94z" stroke="#8babc7" stroke-width="2" fill="#deebf7"/><use xlink:href="#b" transform="matrix(1,0,0,1,725,703.9516095211278) translate(-4.000000000000014 78.33333333333334)"/><use xlink:href="#c" transform="matrix(1,0,0,1,725,703.9516095211278) translate(54.33333333333333 110.33333333333334)"/><path d="M511.9 1027.17c0 51.92-42.1 94-94 94-51.93 0-94-42.08-94-94 0-51.9 42.07-94 94-94 51.9 0 94 42.1 94 94z" stroke="#8babc7" stroke-width="2" fill="#deebf7"/><use xlink:href="#d" transform="matrix(1,0,0,1,328.8888888889081,938.173831743376) translate(27.338333333333317 60.270833333333336)"/><use xlink:href="#e" transform="matrix(1,0,0,1,328.8888888889081,938.173831743376) translate(119.7087037037037 60.270833333333336)"/><use xlink:href="#f" transform="matrix(1,0,0,1,328.8888888889081,938.173831743376) translate(12.518518518518505 92.27083333333334)"/><use xlink:href="#g" transform="matrix(1,0,0,1,328.8888888889081,938.173831743376) translate(51.703703703703695 92.27083333333334)"/><use xlink:href="#h" transform="matrix(1,0,0,1,328.8888888889081,938.173831743376) translate(23.967962962962964 124.27083333333334)"/><path d="M908 1027.17c0 51.92-42.1 94-94 94s-94-42.08-94-94c0-51.9 42.1-94 94-94s94 42.1 94 94z" stroke="#8babc7" stroke-width="2" fill="#deebf7"/><use xlink:href="#i" transform="matrix(1,0,0,1,725,938.173831743376) translate(65.37037037037037 93.64583333333334)"/><path d="M268.7 1143.66c0 24.5-19.86 44.34-44.36 44.34S180 1168.15 180 1143.66c0-24.5 19.85-44.35 44.34-44.35 24.5 0 44.35 19.87 44.35 44.36z" stroke="#8babc7" stroke-width="2" fill="#deebf7"/><use xlink:href="#j" transform="matrix(1,0,0,1,185,1104.3120161803308) translate(8.080246913580243 44.93402777777778)"/><path d="M513.9 1027.17h186.6" stroke="#ba23f6" stroke-width="2" stroke-linejoin="round" fill="none"/><path d="M513.92 1028.15h-1.06l.03-.97-.02-.98h1.04z" stroke="#ba23f6" stroke-width=".05" fill="#ba23f6"/><path d="M715.76 1027.17l-14.26 4.64v-9.26z" stroke="#ba23f6" stroke-width="2" fill="#ba23f6"/><use xlink:href="#k" transform="matrix(1,0,0,1,578.4067440185243,1035.8090866590003) translate(0.0049999999999954525 14.222222222222223)"/><use xlink:href="#l" transform="matrix(1,0,0,1,578.4067440185243,1035.8090866590003) translate(51.36302469135803 14.222222222222223)"/><use xlink:href="#m" transform="matrix(1,0,0,1,578.4067440185243,1035.8090866590003) translate(72.99265432098765 14.222222222222223)"/><use xlink:href="#n" transform="matrix(1,0,0,1,578.4067440185243,1035.8090866590003) translate(40.49882716049383 35.55555555555556)"/><path d="M513.9 1027.15l1.8-.04 2.7-.15 2.64-.28 2.57-.38 2.53-.5 2.48-.58 2.47-.68 2.44-.8 2.43-.9 2.43-1.02 2.45-1.15 2.47-1.3 2.5-1.43 2.54-1.6 2.62-1.83 2.67-2.02 2.76-2.3 2.9-2.6 3-2.95 3.2-3.4 3.4-3.95 3.68-4.64 4.03-5.55 4.5-6.8 5.2-8.6 6.37-11.6 9-18.24 37.6-81.82 6.38-11.6 5.2-8.62 4.5-6.78 4.03-5.55 3.67-4.65 3.4-3.95 3.2-3.4 3.02-2.97 2.88-2.6 2.78-2.3 2.67-2.02 2.6-1.8 2.55-1.62 2.5-1.44 2.46-1.3 2.44-1.14 2.44-1.02 2.42-.9 2.38-.77" stroke="#54c45e" stroke-width="2" stroke-linejoin="round" fill="none"/><path d="M513.94 1028.13l-1.08.02.03-.97-.02-.98 1.02-.02z" stroke="#54c45e" stroke-width=".05" fill="#54c45e"/><path d="M715.8 793.42l-13.45 6.64-1.34-9.17z" stroke="#54c45e" stroke-width="2" fill="#54c45e"/><path d="M70.6 1028.15H-90v-1.95H70.6zm233.8 0H161.3v-1.95h143.1z" stroke="#fc9432" stroke-width=".05" fill="#fc9432"/><path d="M-89.97 1028.15h-1.06l.03-.97v-.98h1.03z" fill="#fc9432"/><path stroke="#fc9432" stroke-width=".05" fill="#fc9432"/><path d="M319.65 1027.17l-14.26 4.64v-9.26z" fill="#fc9432"/><path d="M322.8 1027.17l-18.4 5.98v-11.95zm-16.44 3.3l10.14-3.3-10.14-3.3z" stroke="#fc9432" stroke-width=".05" fill="#fc9432"/><use xlink:href="#o" transform="matrix(1,0,0,1,70.58641975309602,1005.8404984100426) translate(0.005000000000002558 14.222222222222223)"/><use xlink:href="#p" transform="matrix(1,0,0,1,70.58641975309602,1005.8404984100426) translate(74.02969135802468 14.222222222222223)"/><use xlink:href="#q" transform="matrix(1,0,0,1,70.58641975309602,1005.8404984100426) translate(15.338333333333328 35.55555555555556)"/><path d="M101.72 1125.82l5.97 2.8 5.94 2.52 6.03 2.23 6.15 2 6.36 1.78 6.62 1.55 6.97 1.33 7.4 1.1 7.45.77-.2 1.94-7.5-.78-7.47-1.1-7.05-1.35-6.7-1.56-6.44-1.8-6.24-2.02-6.1-2.27-6.02-2.54-6.04-2.83-6.14-3.2-.42-.25h4.16zm-183.3-99.43l8.65.53 8 .84 7.48 1.1 7.05 1.35 6.7 1.57 6.44 1.8 6.23 2 6.1 2.28 6.03 2.54 6.04 2.84 6.14 3.2 6.38 3.7 6.8 4.32 7.62 5.3 9.38 7.13 17.63 14.55H38l-15.77-13-9.32-7.1-7.54-5.25-6.75-4.28-6.3-3.64-6.08-3.17-5.96-2.8-5.95-2.5-6.02-2.24-6.15-2-6.36-1.78-6.62-1.55-6.97-1.33-7.4-1.1-7.92-.82-8.55-.54-8.37-.17.04-1.95z" stroke="#5e5e5e" stroke-width=".05" fill="#5e5e5e"/><path d="M-89.95 1026.22l-.04 1.95-1.03-.02.03-.97v-.98z" fill="#5e5e5e"/><path stroke="#5e5e5e" stroke-width=".05" fill="#5e5e5e"/><path d="M175.76 1143.52l-14.44 4.03.4-9.27z" fill="#5e5e5e"/><path d="M178.92 1143.65l-18.63 5.2.5-11.95zm-16.57 2.6l10.26-2.87-9.97-3.72z" stroke="#5e5e5e" stroke-width=".05" fill="#5e5e5e"/><use xlink:href="#r" transform="matrix(1,0,0,1,-5.589034639807068,1081.4510115650603) translate(0.0049999999999954525 14.222222222222223)"/><use xlink:href="#s" transform="matrix(1,0,0,1,-5.589034639807068,1081.4510115650603) translate(58.27660493827161 14.222222222222223)"/><use xlink:href="#t" transform="matrix(1,0,0,1,-5.589034639807068,1081.4510115650603) translate(36.05438271604939 35.55555555555556)"/><path d="M515.7 792.95c0 51.92-42.08 94-94 94-51.9 0-94-42.08-94-94 0-51.9 42.1-94 94-94 51.92 0 94 42.1 94 94z" stroke="#8babc7" stroke-width="2" fill="#deebf7"/><use xlink:href="#u" transform="matrix(1,0,0,1,332.7055015418539,703.9516095211278) translate(0.40740740740739056 79.34333333333333)"/><use xlink:href="#v" transform="matrix(1,0,0,1,332.7055015418539,703.9516095211278) translate(7.412407407407409 111.34333333333333)"/><use xlink:href="#w" transform="matrix(1,0,0,1,332.7055015418539,703.9516095211278) translate(145.48648148148146 111.34333333333333)"/><use xlink:href="#x" transform="matrix(1,0,0,1,332.7055015418539,703.9516095211278) translate(65.37537037037036 143.34333333333333)"/><path d="M517.7 792.95h182.8" stroke="#54c45e" stroke-width="2" stroke-linejoin="round" fill="none"/><path d="M517.73 793.93h-1.05l.03-.97v-.98h1.03z" stroke="#54c45e" stroke-width=".05" fill="#54c45e"/><path d="M715.76 792.95l-14.26 4.64v-9.28z" stroke="#54c45e" stroke-width="2" fill="#54c45e"/><use xlink:href="#y" transform="matrix(1,0,0,1,642.9135802469134,746.2849428544611) translate(10.276604938271603 14.222222222222223)"/><use xlink:href="#z" transform="matrix(1,0,0,1,642.9135802469134,746.2849428544611) translate(30.029691358024692 14.222222222222223)"/><use xlink:href="#A" transform="matrix(1,0,0,1,642.9135802469134,746.2849428544611) translate(0.004999999999999005 35.55555555555556)"/><path d="M84.14 948.15l-13.6 13.34-11 9.92-9.73 8.05-8.94 6.8-8.47 5.9-8.17 5.17-7.97 4.6-7.87 4.12-7.86 3.7-7.9 3.32-8 2.97-8.17 2.66-8.4 2.35-8.67 2.04-9.03 1.7-9.46 1.4-9.97 1.05-10.6.66-10.3.23-.04-1.95 10.25-.2 10.52-.67 9.9-1.03 9.38-1.4 8.95-1.7 8.6-2 8.3-2.33 8.1-2.63 7.92-2.94 7.82-3.28 7.78-3.66 7.8-4.1 7.9-4.55 8.1-5.13 8.4-5.85 8.88-6.76 9.66-8 10.95-9.87 13.54-13.28L97 931.5h2.65zM308.28 794.6l-3.34.22-9.9 1.04-9.38 1.38-8.95 1.7-8.6 2.02-8.3 2.32-8.1 2.63-7.92 2.96-7.82 3.3-7.78 3.65-7.8 4.1-7.9 4.55-8.1 5.14-8.4 5.83-8.88 6.75-9.66 8-10.94 9.88-13.53 13.27-14.18 15.5h-2.65l15.4-16.85 13.6-13.35 11.02-9.92 9.72-8.04 8.94-6.8 8.47-5.9 8.17-5.18 7.97-4.6 7.88-4.12 7.85-3.7 7.9-3.3 8-3 8.17-2.64 8.4-2.34 8.66-2.04 9.04-1.72 9.46-1.4 9.97-1.04 3.4-.22z" stroke="#fc9432" stroke-width=".05" fill="#fc9432"/><path d="M-89.95 1028.13l-1.08.02.03-.97v-.98l1-.02z" fill="#fc9432"/><path stroke="#fc9432" stroke-width=".05" fill="#fc9432"/><path d="M323.47 793.07l-14.08 5.16-.36-9.26z" fill="#fc9432"/><path d="M326.63 792.96l-18.17 6.65-.44-11.94zm-16.32 3.9l10.02-3.67-10.25-2.93z" stroke="#fc9432" stroke-width=".05" fill="#fc9432"/><use xlink:href="#B" transform="matrix(1,0,0,1,72.62350623019329,888.8439783041819) translate(0.005000000000002558 14.222222222222223)"/><use xlink:href="#C" transform="matrix(1,0,0,1,72.62350623019329,888.8439783041819) translate(74.02969135802468 14.222222222222223)"/><use xlink:href="#D" transform="matrix(1,0,0,1,72.62350623019329,888.8439783041819) translate(15.338333333333328 35.55555555555556)"/><path d="M68.78 1171.96l8.7 12 6.98 8.8 6.02 7 5.43 5.8 5.03 4.9 4.72 4.27 4.5 3.72 4.33 3.3 4.2 2.9 4.12 2.62 4.05 2.34 4.02 2.1 4 1.9 4 1.68 4.06 1.5 4.1 1.34 4.15 1.16 4.25 1 4.37.83.9.14-.27 1.93-.95-.14-4.45-.85-4.34-1-4.25-1.2-4.17-1.35-4.1-1.53-4.1-1.72-4.08-1.92-4.1-2.14-4.1-2.38-4.2-2.66-4.27-2.97-4.4-3.32-4.55-3.78-4.78-4.3-5.08-4.98-5.5-5.85-6.07-7.05-7-8.87-8.78-12.1-31.36-48.93h2.32zM-85.8 1026.3l4.97.32 4.76.5 4.6.68 4.44.85 4.34 1 4.25 1.2 4.17 1.35 4.1 1.53 4.1 1.72 4.08 1.92 4.1 2.14 4.1 2.4 4.2 2.65 4.27 2.97 4.4 3.33 4.55 3.78 4.78 4.3 5.08 4.98 5.5 5.86 6.07 7.06 3.67 4.63H6.2l-2.68-3.4-6.02-6.98-5.44-5.8-5.02-4.9-4.72-4.27-4.5-3.72-4.32-3.3-4.2-2.9-4.12-2.62-4.05-2.34-4.02-2.1-4-1.9-4.02-1.67-4.03-1.5-4.1-1.34-4.15-1.15-4.25-1-4.37-.83-4.52-.67-4.68-.5-4.88-.3-4.14-.08.04-1.95z" stroke="#5e5e5e" stroke-width=".05" fill="#5e5e5e"/><path d="M-89.95 1026.22l-.04 1.95-1.03-.02.03-.97v-.98z" fill="#5e5e5e"/><path stroke="#5e5e5e" stroke-width=".05" fill="#5e5e5e"/><path d="M175.77 1243.4l-14.58 3.5.7-9.24z" fill="#5e5e5e"/><path d="M178.92 1243.65l-18.8 4.52.93-11.92zm-16.66 2l10.37-2.5-9.85-4.07zM21.85 1133l56.52 125.84 7.83 14.27 6.52 10.8 5.7 8.58 5.1 7.04 4.68 5.9 4.33 5.03 4.07 4.34 3.85 3.76 3.67 3.3 3.52 2.92 3.4 2.6 3.3 2.28 3.24 2.05 3.16 1.84 3.12 1.63 3.1 1.46 3.06 1.3 3.07 1.13 3.06 1 3.1.86 1.62.38-.44 1.9-1.68-.4-3.17-.88-3.16-1.02-3.14-1.17-3.14-1.32-3.16-1.48-3.2-1.67-3.23-1.87-3.3-2.1-3.37-2.34-3.47-2.63-3.6-2.96-3.72-3.36-3.9-3.83-4.12-4.4-4.4-5.1-4.7-5.95-5.17-7.1-5.73-8.66-6.56-10.86-7.87-14.37-56.55-125.87-4.8-9.7h2.17zM-87.4 1026.27l3.48.22 3.38.35 3.32.5 3.25.6 3.2.76 3.17.9 3.16 1.02 3.14 1.17 3.14 1.3 3.16 1.5 3.2 1.67 3.23 1.87 3.3 2.1 3.37 2.34 3.47 2.63 3.58 2.98 3.74 3.36 3.9 3.83 4.1 4.4 4.4 5.08 4.73 5.97 5.16 7.1 3.2 4.87v3.5l-4.8-7.26-5.12-7.04-4.68-5.9-4.34-5.03-4.06-4.34-3.85-3.77-3.67-3.3-3.52-2.92-3.4-2.6-3.3-2.3-3.24-2.03-3.16-1.82-3.13-1.63-3.08-1.46-3.07-1.3-3.07-1.14-3.06-1-3.1-.86-3.12-.73-3.17-.6-3.23-.5-3.3-.33-3.4-.22-2.54-.05.04-1.95z" stroke="#5e5e5e" stroke-width=".05" fill="#5e5e5e"/><path d="M-89.95 1026.22l-.04 1.95-1.03-.02.03-.97v-.98z" fill="#5e5e5e"/><path stroke="#5e5e5e" stroke-width=".05" fill="#5e5e5e"/><path d="M175.78 1343.98l-14.7 2.98 1.05-9.2z" fill="#5e5e5e"/><path d="M178.92 1344.34l-18.96 3.85 1.36-11.9zm-16.7 1.4l10.43-2.12-9.7-4.42z" stroke="#5e5e5e" stroke-width=".05" fill="#5e5e5e"/><path d="M268.7 1344.34c0 24.5-19.86 44.35-44.36 44.35S180 1368.82 180 1344.33c0-24.5 19.85-44.34 44.34-44.34 24.5 0 44.35 19.85 44.35 44.34z" stroke="#8babc7" stroke-width="2" fill="#deebf7"/><use xlink:href="#E" transform="matrix(1,0,0,1,185,1305) translate(2.617283950617278 44.93402777777778)"/><path d="M304.47 1028.9l-.5.03-8.7.9-8.32 1.24-7.98 1.52-7.7 1.8-7.5 2.1-7.3 2.36-7.2 2.68-7.1 2.98-7.06 3.33-7.07 3.7-7.14 4.12-7.28 4.62-7.47 5.18-7.76 5.9-8.2 6.78-8.83 7.96-9.8 9.6-11.5 12.26-71.54 88.77-15.26 17.74-11.55 12.3-9.86 9.68-8.9 8-8.25 6.85-7.82 5.94-7.53 5.24-7.34 4.67-7.2 4.16-7.15 3.74-7.14 3.36-7.17 3.02-7.26 2.7-7.4 2.4-7.56 2.12-7.77 1.82-8.07 1.53-8.4 1.24-8.78.92-9.26.57-8.8.18-.03-1.95 8.74-.18 9.18-.57 8.7-.92 8.32-1.22 7.98-1.52 7.7-1.8 7.5-2.1 7.3-2.37 7.2-2.66 7.1-3 7.06-3.3 7.08-3.7 7.14-4.14 7.27-4.6 7.46-5.2 7.77-5.9 8.2-6.8 8.82-7.94 9.8-9.62 11.5-12.26 15.2-17.68 71.6-88.8 11.55-12.33 9.86-9.67 8.9-8.02 8.25-6.83 7.83-5.95 7.54-5.24 7.34-4.65 7.2-4.16 7.16-3.74 7.14-3.36 7.18-3.02 7.26-2.7 7.4-2.4 7.56-2.1 7.78-1.84 8.07-1.54 8.4-1.23 8.78-.92.55-.03z" stroke="#fc9432" stroke-width=".05" fill="#fc9432"/><path d="M-89.95 1294.95l-1.08.03.03-.97v-.97l1-.03z" fill="#fc9432"/><path stroke="#fc9432" stroke-width=".05" fill="#fc9432"/><path d="M319.65 1027.3l-14.06 5.2-.4-9.25z" fill="#fc9432"/><path d="M322.8 1027.18l-18.13 6.7-.5-11.93zm-16.3 3.95l10-3.7-10.26-2.88z" stroke="#fc9432" stroke-width=".05" fill="#fc9432"/><use xlink:href="#o" transform="matrix(1,0,0,1,-58.8129548408892,1217.557080311423) translate(0.005000000000002558 14.222222222222223)"/><use xlink:href="#p" transform="matrix(1,0,0,1,-58.8129548408892,1217.557080311423) translate(74.02969135802468 14.222222222222223)"/><use xlink:href="#q" transform="matrix(1,0,0,1,-58.8129548408892,1217.557080311423) translate(15.338333333333328 35.55555555555556)"/><path d="M517.7 792.97l1.7.04 2.62.17 2.54.27 2.5.37 2.42.47 2.4.56 2.38.67 2.35.76 2.36.88 2.36 1 2.36 1.1 2.4 1.25 2.4 1.4 2.48 1.55 2.52 1.76 2.6 1.98 2.7 2.23 2.8 2.53 2.92 2.87 3.1 3.3 3.3 3.83 3.55 4.5 3.9 5.35 4.33 6.55 5 8.25 6.02 11 8.22 16.64L642 962.55l6.04 11 4.98 8.25 4.34 6.54 3.9 5.36 3.55 4.5 3.3 3.82 3.1 3.3 2.94 2.88 2.8 2.52 2.7 2.22 2.58 1.98 2.53 1.75 2.47 1.57 2.42 1.4 2.38 1.25 2.37 1.1 2.34 1 2.35.86 1.68.55" stroke="#ba23f6" stroke-width="2" stroke-linejoin="round" fill="none"/><path d="M517.75 792l-.04 1.95-1.02-.02.03-.97v-.98z" stroke="#ba23f6" stroke-width=".05" fill="#ba23f6"/><path d="M715.8 1026.7l-14.8 2.43 1.4-9.16z" stroke="#ba23f6" stroke-width="2" fill="#ba23f6"/><path d="M-92 1294c0 51.9-42.1 94-94 94s-94-42.1-94-94 42.1-94 94-94 94 42.1 94 94z" stroke="#8babc7" stroke-width="2" fill="#deebf7"/><use xlink:href="#F" transform="matrix(1,0,0,1,-275,1205) translate(17.63462962962961 76.95833333333334)"/><use xlink:href="#G" transform="matrix(1,0,0,1,-275,1205) translate(99.78277777777778 76.95833333333334)"/><use xlink:href="#H" transform="matrix(1,0,0,1,-275,1205) translate(56.48148148148148 108.95833333333334)"/><path d="M268.7 1243.66c0 24.5-19.86 44.34-44.36 44.34S180 1268.15 180 1243.66c0-24.5 19.85-44.35 44.34-44.35 24.5 0 44.35 19.87 44.35 44.36z" stroke="#8babc7" stroke-width="2" fill="#deebf7"/><g><use xlink:href="#I" transform="matrix(1,0,0,1,185,1204.3120161803308) translate(4.1346296296296305 30.12152777777778)"/><use xlink:href="#J" transform="matrix(1,0,0,1,185,1204.3120161803308) translate(56.41858024691358 30.12152777777778)"/><use xlink:href="#K" transform="matrix(1,0,0,1,185,1204.3120161803308) translate(16.844506172839502 56.78819444444445)"/></g><path d="M268.7 1445.03c0 24.5-19.86 44.35-44.36 44.35S180 1469.52 180 1445.03c0-24.5 19.85-44.34 44.34-44.34 24.5 0 44.35 19.84 44.35 44.33z" stroke="#8babc7" stroke-width="2" fill="#deebf7"/><g><use xlink:href="#L" transform="matrix(1,0,0,1,185,1405.6879838196692) translate(0.7345679012345698 44.93402777777778)"/></g><path d="M268.7 1545.72c0 24.5-19.86 44.34-44.36 44.34S180 1570.2 180 1545.72c0-24.5 19.85-44.34 44.34-44.34 24.5 0 44.35 19.85 44.35 44.34z" stroke="#8babc7" stroke-width="2" fill="#deebf7"/><g><use xlink:href="#M" transform="matrix(1,0,0,1,185,1506.3759676393383) translate(-2.3518518518518547 43.94444444444444)"/></g><path d="M66.65 1392.65l8.8 8.65 7.1 6.4 6.26 5.18 5.76 4.37 5.43 3.77 5.2 3.32 5.1 2.95 5.05 2.62 5.03 2.37 5.05 2.1 5.1 1.9 5.24 1.7 5.36 1.5 5.56 1.3 5.77 1.1 6.06.9 2.1.23-.2 1.94-2.14-.23-6.16-.9-5.86-1.12-5.63-1.32-5.45-1.52-5.3-1.72-5.2-1.94-5.12-2.15-5.1-2.4-5.1-2.67-5.18-3-5.3-3.35-5.5-3.83-5.8-4.4-6.32-5.24-7.16-6.46-8.88-8.7-2.95-3.24h2.63zm-150.3-99.47l6.9.43 6.46.7 6.16.9 5.86 1.1 5.63 1.33 5.45 1.52 5.3 1.72 5.2 1.94 5.12 2.16 5.1 2.4 5.1 2.67 5.18 3 5.3 3.35 5.5 3.83 5.8 4.42 6.32 5.23 7.16 6.46 8.87 8.72 2.9 3.1h-2.68l-1.6-1.74-8.83-8.65-7.1-6.4-6.25-5.18-5.76-4.37L-12 1318l-5.2-3.3-5.12-2.96-5.03-2.63-5.03-2.36-5.05-2.12-5.12-1.9-5.22-1.7-5.36-1.5-5.56-1.3-5.77-1.1-6.06-.9-6.4-.67-6.8-.42-6.3-.13.05-1.95z" stroke="#5e5e5e" stroke-width=".05" fill="#5e5e5e"/><path d="M-89.95 1293.05L-90 1295l-1.03-.03.03-.96v-.98z" fill="#5e5e5e"/><path stroke="#5e5e5e" stroke-width=".05" fill="#5e5e5e"/><path d="M175.77 1444.85l-14.5 3.83.5-9.25z" fill="#5e5e5e"/><path d="M178.92 1445.03l-18.7 4.94.66-11.94zm-16.6 2.37l10.3-2.73-9.94-3.85z" stroke="#5e5e5e" stroke-width=".05" fill="#5e5e5e"/><g><use xlink:href="#r" transform="matrix(1,0,0,1,-26.93862196294848,1348.1167280150257) translate(0.0049999999999954525 14.222222222222223)"/><use xlink:href="#s" transform="matrix(1,0,0,1,-26.93862196294848,1348.1167280150257) translate(58.27660493827161 14.222222222222223)"/><use xlink:href="#t" transform="matrix(1,0,0,1,-26.93862196294848,1348.1167280150257) translate(36.05438271604939 35.55555555555556)"/></g><path d="M74.98 1472.5l7.73 11.66 6.46 8.9 5.68 7.18 5.16 5.97 4.76 5.1 4.48 4.38 4.25 3.83 4.06 3.38 3.93 3 3.82 2.65 3.74 2.38 3.7 2.13 3.63 1.9 3.62 1.72 3.62 1.52 3.64 1.35 3.66 1.2 3.72 1.03 3.77.9 2.35.43-.36 1.92-2.4-.46-3.85-.9-3.8-1.06-3.74-1.22-3.7-1.38-3.7-1.55-3.7-1.74-3.72-1.96-3.75-2.17-3.8-2.42-3.9-2.7-4-3.04-4.14-3.42-4.3-3.88-4.53-4.44-4.82-5.14-5.2-6.04-5.74-7.24-6.5-8.97-7.78-11.74-46.35-82.75h2.24zM-86.5 1293.13l4.3.27 4.18.43 4.05.6 3.94.75 3.86.9 3.8 1.06 3.73 1.22 3.72 1.38 3.7 1.55 3.7 1.73 3.7 1.95 3.77 2.17 3.8 2.42 3.9 2.7 4 3.04 4.14 3.43 4.3 3.9 4.53 4.43 4.82 5.14 5.2 6.04 5.74 7.24 1.9 2.64H-.1l-1.06-1.46-5.7-7.18-5.14-5.97-4.76-5.08-4.48-4.38-4.25-3.83-4.06-3.36-3.93-3-3.82-2.65-3.74-2.38-3.7-2.13-3.64-1.92-3.62-1.7-3.62-1.53-3.64-1.35-3.66-1.2-3.72-1.03-3.78-.9-3.86-.72-3.96-.6-4.1-.42-4.22-.26-3.44-.07.04-1.95z" stroke="#5e5e5e" stroke-width=".05" fill="#5e5e5e"/><path d="M-89.95 1293.05L-90 1295l-1.03-.03.03-.96v-.98z" fill="#5e5e5e"/><path stroke="#5e5e5e" stroke-width=".05" fill="#5e5e5e"/><path d="M175.78 1545.43l-14.63 3.32.84-9.24z" fill="#5e5e5e"/><path d="M178.92 1545.7l-18.86 4.3 1.08-11.9zm-16.68 1.8l10.4-2.36-9.8-4.2zM-70.46 1293.44l17.05 1.06 14.65 1.54 13.05 1.92 12.08 2.3 11.7 2.75 12.2 3.42 15.1 4.92 52.9 18.72 12.12 3.4 11.63 2.7 12 2.3 12.96 1.9 14.57 1.54 16.97 1.05 1.98.04-.04 1.94-2.02-.04-17.05-1.06-14.65-1.53-13.06-1.92-12.08-2.3-11.7-2.74-12.22-3.42-52.96-18.73-15-4.9-12.14-3.4-11.63-2.73-12-2.3-12.96-1.9-14.57-1.52-16.97-1.06-19.48-.4.04-1.95z" stroke="#5e5e5e" stroke-width=".05" fill="#5e5e5e"/><path d="M-89.95 1293.05L-90 1295l-1.03-.03.03-.96v-.98z" fill="#5e5e5e"/><path stroke="#5e5e5e" stroke-width=".05" fill="#5e5e5e"/><path d="M175.76 1344.28l-14.35 4.34.2-9.26z" fill="#5e5e5e"/><path d="M178.92 1344.34l-18.5 5.6.23-11.95zm-16.5 2.96l10.2-3.1-10.08-3.48z" stroke="#5e5e5e" stroke-width=".05" fill="#5e5e5e"/><defs><path d="M52-115c0 90 69 126 140 93v-67l-30-5v-9h87v9l-23 5v77c-27 8-56 16-90 16C59 2 15-37 15-115c-1-82 41-123 122-123 31 0 59 4 83 10v51h-12l-5-29c-15-12-38-18-65-18-66-1-86 42-86 109" id="N"/><path d="M90-170c52 0 76 32 76 87 0 54-24 87-77 87-51 0-75-34-75-87 0-54 24-87 76-87zM89-10c39 0 46-35 46-73 0-39-7-73-46-73-39 1-44 34-44 73s6 72 44 73" id="O"/><path d="M84-170c49 0 66 33 63 87H46c-8 60 38 80 95 63v10C128-2 108 4 88 4 34 4 14-29 14-84c-1-54 22-86 70-86zm33 73c12-57-57-82-69-24-1 7-2 15-2 24h71" id="P"/><path d="M54-38c-1 25 24 26 44 20v12C71 10 25 9 25-35v-115H4c-2-14 14-10 21-15l18-38h11v38h38v15H54v112" id="Q"/><path d="M126-119c3-38-42-31-69-25v132l23 4v8H7v-8l21-4v-226l-24-4v-8h53l-1 98c31-22 99-31 99 31v109c7 3 23-1 20 12h-71v-8l22-4v-107" id="R"/><g id="a"><use transform="matrix(0.07407407407407408,0,0,0.07407407407407408,0,0)" xlink:href="#N"/><use transform="matrix(0.07407407407407408,0,0,0.07407407407407408,19.185185185185187,0)" xlink:href="#O"/><use transform="matrix(0.07407407407407408,0,0,0.07407407407407408,32.51851851851852,0)" xlink:href="#P"/><use transform="matrix(0.07407407407407408,0,0,0.07407407407407408,44.29629629629629,0)" xlink:href="#Q"/><use transform="matrix(0.07407407407407408,0,0,0.07407407407407408,51.70370370370371,0)" xlink:href="#R"/><use transform="matrix(0.07407407407407408,0,0,0.07407407407407408,65.03703703703704,0)" xlink:href="#P"/></g><path d="M203-222l-32-4v-10h81v10l-31 4V0h-17L59-212v198l32 5v9H10v-9l31-5v-208l-31-4v-10h72L203-61v-161" id="S"/><path d="M32-163c41-10 102-14 102 39v112c8 3 24-2 21 12h-45l-4-17C83 13 3 13 13-46c-2-50 45-50 92-51 4-36-5-70-42-56-6 2-12 4-16 6-4 7 0 23-15 20v-36zM42-47c0 41 41 33 63 22v-59c-34 1-63-1-63 37" id="T"/><path d="M124-13C89 8 26 15 26-45v-108c-8-3-24 2-21-12h50v118c-3 37 42 32 69 25v-131l-25-4v-8h54v153c8 3 24-2 21 12h-48" id="U"/><path d="M57-145c16-10 35-24 60-25v45c-19 1-8-30-40-17l-20 6v124l29 4v8H7v-8l21-4v-141c-8-3-24 2-21-12h48" id="V"/><path d="M103-236c-39-15-35 32-34 71h44v15H69v136l35 6v8H15v-8l25-6v-136H11v-9l29-7c-6-59 23-100 80-84v36c-15 2-12-14-17-22" id="W"/><path d="M41-130c7 48 86 23 86 84 0 56-69 57-112 41v-40c20 0 9 29 31 31 35 19 77-26 41-50-27-18-72-13-72-59 0-50 58-52 100-41v36c-19 1-8-25-28-25-21-7-50-1-46 23" id="X"/><path d="M45-84c0 64 52 80 104 63 1 25-30 25-55 25-56 0-80-32-80-88 0-76 62-98 131-80v46h-10c-5-15-4-31-23-35-47-10-67 21-67 69" id="Y"/><path d="M125-118c4-37-41-34-68-26v132l23 4v8H8C5-13 21-9 28-12v-141c-7-3-23 1-20-12h47l2 13c31-23 98-29 98 31v109c7 3 23-1 20 12h-72v-8l22-4v-106" id="Z"/><path d="M13-81c0-71 46-101 114-85l-1-72-28-4v-8h57v238c8 3 24-2 21 12h-47l-2-12C80 23 13-1 13-81zm77-74c-37 1-44 33-45 74 0 38 9 66 45 66 14 0 27-3 36-7v-130c-10-1-24-3-36-3" id="aa"/><g id="b"><use transform="matrix(0.07407407407407408,0,0,0.07407407407407408,0,0)" xlink:href="#S"/><use transform="matrix(0.07407407407407408,0,0,0.07407407407407408,19.185185185185187,0)" xlink:href="#T"/><use transform="matrix(0.07407407407407408,0,0,0.07407407407407408,30.962962962962965,0)" xlink:href="#Q"/><use transform="matrix(0.07407407407407408,0,0,0.07407407407407408,38.370370370370374,0)" xlink:href="#U"/><use transform="matrix(0.07407407407407408,0,0,0.07407407407407408,51.70370370370371,0)" xlink:href="#V"/><use transform="matrix(0.07407407407407408,0,0,0.07407407407407408,60.518518518518526,0)" xlink:href="#W"/><use transform="matrix(0.07407407407407408,0,0,0.07407407407407408,69.33333333333334,0)" xlink:href="#O"/><use transform="matrix(0.07407407407407408,0,0,0.07407407407407408,82.66666666666667,0)" xlink:href="#V"/><use transform="matrix(0.07407407407407408,0,0,0.07407407407407408,91.4814814814815,0)" xlink:href="#X"/><use transform="matrix(0.07407407407407408,0,0,0.07407407407407408,101.85185185185186,0)" xlink:href="#Y"/><use transform="matrix(0.07407407407407408,0,0,0.07407407407407408,113.62962962962965,0)" xlink:href="#R"/><use transform="matrix(0.07407407407407408,0,0,0.07407407407407408,126.96296296296299,0)" xlink:href="#P"/><use transform="matrix(0.07407407407407408,0,0,0.07407407407407408,138.74074074074076,0)" xlink:href="#Z"/><use transform="matrix(0.07407407407407408,0,0,0.07407407407407408,152.0740740740741,0)" xlink:href="#aa"/><use transform="matrix(0.07407407407407408,0,0,0.07407407407407408,165.40740740740748,0)" xlink:href="#P"/><use transform="matrix(0.07407407407407408,0,0,0.07407407407407408,177.18518518518522,0)" xlink:href="#V"/></g><path d="M256-236v10l-26 4L135 5h-9L31-222l-27-4v-10h95v10l-31 4 71 174 71-174-31-4v-10h77" id="ab"/><path d="M47-200c-23 0-25-39 0-38 13 0 18 7 20 19-1 11-8 19-20 19zM65-12l28 4v8H8v-8l28-4v-141l-24-4v-8h53v153" id="ac"/><g id="c"><use transform="matrix(0.07407407407407408,0,0,0.07407407407407408,0,0)" xlink:href="#ab"/><use transform="matrix(0.07407407407407408,0,0,0.07407407407407408,16.222222222222225,0)" xlink:href="#P"/><use transform="matrix(0.07407407407407408,0,0,0.07407407407407408,28.000000000000004,0)" xlink:href="#V"/><use transform="matrix(0.07407407407407408,0,0,0.07407407407407408,36.814814814814824,0)" xlink:href="#P"/><use transform="matrix(0.07407407407407408,0,0,0.07407407407407408,48.5925925925926,0)" xlink:href="#ac"/><use transform="matrix(0.07407407407407408,0,0,0.07407407407407408,56.000000000000014,0)" xlink:href="#Z"/></g><path d="M178-68c0 79-95 82-154 59v-54h12c1 35 22 52 60 52 50 0 69-58 33-82-39-24-105-21-105-85 0-67 86-66 142-53v49h-12l-6-29c-31-27-121-7-89 42 28 43 119 24 119 101" id="ad"/><path d="M32-163c41-10 102-14 102 39v112c8 3 24-2 21 12h-45l-4-17C83 13 3 13 13-46c-2-50 45-50 92-51 4-36-5-70-42-56-6 2-12 4-16 6-4 7 0 23-15 20v-36zM42-47c0 41 41 33 63 22v-59c-34 1-63-1-63 37zm69-180c10 0 18 7 18 17 0 11-7 18-18 18-9 0-18-7-17-18 0-10 7-17 17-17zm-62 0c10 0 17 7 17 17s-7 18-17 18-19-7-18-18c0-11 8-17 18-17" id="ae"/><g id="d"><use transform="matrix(0.07407407407407408,0,0,0.07407407407407408,0,0)" xlink:href="#ad"/><use transform="matrix(0.07407407407407408,0,0,0.07407407407407408,14.814814814814817,0)" xlink:href="#O"/><use transform="matrix(0.07407407407407408,0,0,0.07407407407407408,28.148148148148152,0)" xlink:href="#Y"/><use transform="matrix(0.07407407407407408,0,0,0.07407407407407408,39.92592592592593,0)" xlink:href="#ac"/><use transform="matrix(0.07407407407407408,0,0,0.07407407407407408,47.33333333333334,0)" xlink:href="#P"/><use transform="matrix(0.07407407407407408,0,0,0.07407407407407408,59.11111111111112,0)" xlink:href="#Q"/><use transform="matrix(0.07407407407407408,0,0,0.07407407407407408,66.51851851851853,0)" xlink:href="#ae"/><use transform="matrix(0.07407407407407408,0,0,0.07407407407407408,78.2962962962963,0)" xlink:href="#Q"/></g><path d="M124-13C89 8 26 15 26-45v-108c-8-3-24 2-21-12h50v118c-3 37 42 32 69 25v-131l-25-4v-8h54v153c8 3 24-2 21 12h-48zm-3-214c10 0 18 7 18 17 0 11-7 18-18 18-9 0-18-7-17-18 0-10 7-17 17-17zm-62 0c10 0 17 7 17 17s-7 18-17 18-19-7-18-18c0-11 8-17 18-17" id="af"/><g id="e"><use transform="matrix(0.07407407407407408,0,0,0.07407407407407408,0,0)" xlink:href="#W"/><use transform="matrix(0.07407407407407408,0,0,0.07407407407407408,8.814814814814817,0)" xlink:href="#af"/><use transform="matrix(0.07407407407407408,0,0,0.07407407407407408,22.148148148148152,0)" xlink:href="#V"/></g><g id="f"><use transform="matrix(0.07407407407407408,0,0,0.07407407407407408,0,0)" xlink:href="#aa"/><use transform="matrix(0.07407407407407408,0,0,0.07407407407407408,13.333333333333336,0)" xlink:href="#ac"/><use transform="matrix(0.07407407407407408,0,0,0.07407407407407408,20.740740740740744,0)" xlink:href="#P"/></g><path d="M126-118c4-37-42-32-68-25v131l24 4v8H8C5-13 21-9 28-12v-141c-7-3-23 1-20-12h48l1 13c22-15 77-30 92 2 32-22 104-36 104 29v109c8 3 24-2 21 12h-75v-8l25-4v-106c3-39-45-31-72-24 7 37 1 88 3 130l25 4v8h-78v-8l24-4v-106" id="ag"/><g id="g"><use transform="matrix(0.07407407407407408,0,0,0.07407407407407408,0,0)" xlink:href="#N"/><use transform="matrix(0.07407407407407408,0,0,0.07407407407407408,19.185185185185187,0)" xlink:href="#P"/><use transform="matrix(0.07407407407407408,0,0,0.07407407407407408,30.962962962962965,0)" xlink:href="#X"/><use transform="matrix(0.07407407407407408,0,0,0.07407407407407408,41.333333333333336,0)" xlink:href="#T"/><use transform="matrix(0.07407407407407408,0,0,0.07407407407407408,53.11111111111112,0)" xlink:href="#ag"/><use transform="matrix(0.07407407407407408,0,0,0.07407407407407408,73.85185185185186,0)" xlink:href="#ag"/><use transform="matrix(0.07407407407407408,0,0,0.07407407407407408,94.59259259259261,0)" xlink:href="#Q"/><use transform="matrix(0.07407407407407408,0,0,0.07407407407407408,102.00000000000001,0)" xlink:href="#P"/></g><path d="M152 0h-7L59-203v189l32 5v9H10v-9l31-5v-208l-31-4v-10h72l76 180 84-180h68v10l-31 4v208l31 5v9h-96v-9l32-5v-189" id="ah"/><path d="M65-12l28 4v8H7v-8l28-4v-226l-28-4v-8h58v238" id="ai"/><path d="M141-152c28 39 5 97-54 97-9 0-20-2-27-3L49-35c29 22 130-14 124 52-4 45-38 57-88 61C21 83-8 26 45-2 33-6 22-15 21-31l28-31c-19-9-28-26-28-51-2-51 53-65 100-52l38-20 7 8zM85 64c35 0 61-11 61-42 0-35-57-17-89-21-9 8-16 19-17 34 0 25 19 29 45 29zM52-113c1 26 7 46 35 44 28-1 34-16 35-44 0-26-6-43-34-43s-36 17-36 43" id="aj"/><g id="h"><use transform="matrix(0.07407407407407408,0,0,0.07407407407407408,0,0)" xlink:href="#ah"/><use transform="matrix(0.07407407407407408,0,0,0.07407407407407408,23.703703703703706,0)" xlink:href="#ac"/><use transform="matrix(0.07407407407407408,0,0,0.07407407407407408,31.111111111111114,0)" xlink:href="#Z"/><use transform="matrix(0.07407407407407408,0,0,0.07407407407407408,44.44444444444445,0)" xlink:href="#P"/><use transform="matrix(0.07407407407407408,0,0,0.07407407407407408,56.22222222222223,0)" xlink:href="#V"/><use transform="matrix(0.07407407407407408,0,0,0.07407407407407408,65.03703703703704,0)" xlink:href="#T"/><use transform="matrix(0.07407407407407408,0,0,0.07407407407407408,76.81481481481481,0)" xlink:href="#ai"/><use transform="matrix(0.07407407407407408,0,0,0.07407407407407408,84.22222222222221,0)" xlink:href="#O"/><use transform="matrix(0.07407407407407408,0,0,0.07407407407407408,97.55555555555553,0)" xlink:href="#aj"/><use transform="matrix(0.07407407407407408,0,0,0.07407407407407408,110.88888888888889,0)" xlink:href="#ac"/><use transform="matrix(0.07407407407407408,0,0,0.07407407407407408,118.29629629629629,0)" xlink:href="#P"/></g><path d="M106-76c4 61-43 93-98 74v-43h11c2 18 5 33 28 33 16 0 25-11 25-33v-177l-30-4v-10h91v10l-27 4v146" id="ak"/><g id="i"><use transform="matrix(0.07407407407407408,0,0,0.07407407407407408,0,0)" xlink:href="#ak"/><use transform="matrix(0.07407407407407408,0,0,0.07407407407407408,10.370370370370372,0)" xlink:href="#P"/><use transform="matrix(0.07407407407407408,0,0,0.07407407407407408,22.148148148148152,0)" xlink:href="#Z"/><use transform="matrix(0.07407407407407408,0,0,0.07407407407407408,35.48148148148149,0)" xlink:href="#T"/></g><path d="M81-9v9H4v-9l26-5 81-224h33l83 224 30 5v9h-99v-9l31-5-23-68H73L49-14zm38-203L78-98h82" id="al"/><g id="j"><use transform="matrix(0.06172839506172839,0,0,0.06172839506172839,0,0)" xlink:href="#al"/><use transform="matrix(0.06172839506172839,0,0,0.06172839506172839,15.987654320987653,0)" xlink:href="#U"/><use transform="matrix(0.06172839506172839,0,0,0.06172839506172839,27.098765432098766,0)" xlink:href="#Q"/><use transform="matrix(0.06172839506172839,0,0,0.06172839506172839,33.27160493827161,0)" xlink:href="#R"/><use transform="matrix(0.06172839506172839,0,0,0.06172839506172839,44.38271604938272,0)" xlink:href="#O"/><use transform="matrix(0.06172839506172839,0,0,0.06172839506172839,55.49382716049384,0)" xlink:href="#V"/></g><path fill="#333" d="M24-248c93 1 206-16 204 79-1 75-69 88-152 82V0H24v-248zm52 121c47 0 100 7 100-41 0-47-54-39-100-39v80" id="am"/><path fill="#333" d="M25 0v-261h50V0H25" id="an"/><path fill="#333" d="M133-34C117-15 103 5 69 4 32 3 11-16 11-54c-1-60 55-63 116-61 1-26-3-47-28-47-18 1-26 9-28 27l-52-2c7-38 36-58 82-57s74 22 75 68l1 82c-1 14 12 18 25 15v27c-30 8-71 5-69-32zm-48 3c29 0 43-24 42-57-32 0-66-3-65 30 0 17 8 27 23 27" id="ao"/><path fill="#333" d="M190-63c-7 42-38 67-86 67-59 0-84-38-90-98-12-110 154-137 174-36l-49 2c-2-19-15-32-35-32-30 0-35 28-38 64-6 74 65 87 74 30" id="ap"/><path fill="#333" d="M185-48c-13 30-37 53-82 52C43 2 14-33 14-96s30-98 90-98c62 0 83 45 84 108H66c0 31 8 55 39 56 18 0 30-7 34-22zm-45-69c5-46-57-63-70-21-2 6-4 13-4 21h74" id="aq"/><g id="k"><use transform="matrix(0.04938271604938272,0,0,0.04938271604938272,0,0)" xlink:href="#am"/><use transform="matrix(0.04938271604938272,0,0,0.04938271604938272,11.851851851851853,0)" xlink:href="#an"/><use transform="matrix(0.04938271604938272,0,0,0.04938271604938272,16.790123456790127,0)" xlink:href="#ao"/><use transform="matrix(0.04938271604938272,0,0,0.04938271604938272,26.666666666666668,0)" xlink:href="#ap"/><use transform="matrix(0.04938271604938272,0,0,0.04938271604938272,36.543209876543216,0)" xlink:href="#aq"/></g><path fill="#333" d="M110-194c64 0 96 36 96 99 0 64-35 99-97 99-61 0-95-36-95-99 0-62 34-99 96-99zm-1 164c35 0 45-28 45-65 0-40-10-65-43-65-34 0-45 26-45 65 0 36 10 65 43 65" id="ar"/><path fill="#333" d="M121-226c-27-7-43 5-38 36h38v33H83V0H34v-157H6v-33h28c-9-59 32-81 87-68v32" id="as"/><g id="l"><use transform="matrix(0.04938271604938272,0,0,0.04938271604938272,0,0)" xlink:href="#ar"/><use transform="matrix(0.04938271604938272,0,0,0.04938271604938272,10.814814814814815,0)" xlink:href="#as"/></g><path fill="#333" d="M88-194c31-1 46 15 58 34l-1-101h50l1 261h-48c-2-10 0-23-3-31C134-8 116 4 84 4 32 4 16-41 15-95c0-56 19-97 73-99zm17 164c33 0 40-30 41-66 1-37-9-64-41-64s-38 30-39 65c0 43 13 65 39 65" id="at"/><path fill="#333" d="M135-150c-39-12-60 13-60 57V0H25l-1-190h47c2 13-1 29 3 40 6-28 27-53 61-41v41" id="au"/><path fill="#333" d="M137-138c1-29-70-34-71-4 15 46 118 7 119 86 1 83-164 76-172 9l43-7c4 19 20 25 44 25 33 8 57-30 24-41C81-84 22-81 20-136c-2-80 154-74 161-7" id="av"/><g id="m"><use transform="matrix(0.04938271604938272,0,0,0.04938271604938272,0,0)" xlink:href="#ao"/><use transform="matrix(0.04938271604938272,0,0,0.04938271604938272,9.876543209876544,0)" xlink:href="#at"/><use transform="matrix(0.04938271604938272,0,0,0.04938271604938272,20.69135802469136,0)" xlink:href="#at"/><use transform="matrix(0.04938271604938272,0,0,0.04938271604938272,31.506172839506174,0)" xlink:href="#au"/><use transform="matrix(0.04938271604938272,0,0,0.04938271604938272,38.41975308641976,0)" xlink:href="#aq"/><use transform="matrix(0.04938271604938272,0,0,0.04938271604938272,48.296296296296305,0)" xlink:href="#av"/><use transform="matrix(0.04938271604938272,0,0,0.04938271604938272,58.17283950617284,0)" xlink:href="#av"/></g><path fill="#333" d="M195-6C206 82 75 100 31 46c-4-6-6-13-8-21l49-6c3 16 16 24 34 25 40 0 42-37 40-79-11 22-30 35-61 35-53 0-70-43-70-97 0-56 18-96 73-97 30 0 46 14 59 34l2-30h47zm-90-29c32 0 41-27 41-63 0-35-9-62-40-62-32 0-39 29-40 63 0 36 9 62 39 62" id="aw"/><path fill="#333" d="M115-3C79 11 28 4 28-45v-112H4v-33h27l15-45h31v45h36v33H77v99c-1 23 16 31 38 25v30" id="ax"/><path fill="#333" d="M35-132v-50h50v50H35zM35 0v-49h50V0H35" id="ay"/><path fill="#333" d="M138-131c27 9 52 24 51 61 0 53-36 74-89 74S11-19 11-69c0-35 22-54 51-61-78-25-46-121 38-121 51 0 83 19 83 66 0 30-18 49-45 54zm-38-16c24 0 32-13 32-36 1-23-11-34-32-34-22 0-33 12-32 34 0 22 9 36 32 36zm1 116c27 0 37-17 37-43 0-25-13-39-39-39-24 0-37 15-37 40 0 27 11 42 39 42" id="az"/><path fill="#333" d="M128-127c34 4 56 21 59 58 7 91-148 94-172 28-4-9-6-17-7-26l51-5c1 24 16 35 40 36 23 0 39-12 38-36-1-31-31-36-65-34v-40c32 2 59-3 59-33 0-20-13-33-34-33s-33 13-35 32l-50-3c6-44 37-68 86-68 50 0 83 20 83 66 0 35-22 52-53 58" id="aA"/><g id="n"><use transform="matrix(0.04938271604938272,0,0,0.04938271604938272,0,0)" xlink:href="#as"/><use transform="matrix(0.04938271604938272,0,0,0.04938271604938272,5.8765432098765435,0)" xlink:href="#aw"/><use transform="matrix(0.04938271604938272,0,0,0.04938271604938272,16.691358024691358,0)" xlink:href="#ax"/><use transform="matrix(0.04938271604938272,0,0,0.04938271604938272,22.567901234567902,0)" xlink:href="#ay"/><use transform="matrix(0.04938271604938272,0,0,0.04938271604938272,28.444444444444446,0)" xlink:href="#am"/><use transform="matrix(0.04938271604938272,0,0,0.04938271604938272,40.2962962962963,0)" xlink:href="#az"/><use transform="matrix(0.04938271604938272,0,0,0.04938271604938272,50.17283950617284,0)" xlink:href="#aA"/></g><path fill="#333" d="M220-157c-53 9-28 100-34 157h-49v-107c1-27-5-49-29-50C55-147 81-57 75 0H25l-1-190h47c2 12-1 28 3 38 10-53 101-56 108 0 13-22 24-43 59-42 82 1 51 116 57 194h-49v-107c-1-25-5-48-29-50" id="aB"/><path fill="#333" d="M135-194c52 0 70 43 70 98 0 56-19 99-73 100-30 1-46-15-58-35L72 0H24l1-261h50v104c11-23 29-37 60-37zM114-30c31 0 40-27 40-66 0-37-7-63-39-63s-41 28-41 65c0 36 8 64 40 64" id="aC"/><g id="o"><use transform="matrix(0.04938271604938272,0,0,0.04938271604938272,0,0)" xlink:href="#aB"/><use transform="matrix(0.04938271604938272,0,0,0.04938271604938272,15.80246913580247,0)" xlink:href="#aq"/><use transform="matrix(0.04938271604938272,0,0,0.04938271604938272,25.679012345679016,0)" xlink:href="#aB"/><use transform="matrix(0.04938271604938272,0,0,0.04938271604938272,41.48148148148148,0)" xlink:href="#aC"/><use transform="matrix(0.04938271604938272,0,0,0.04938271604938272,52.2962962962963,0)" xlink:href="#aq"/><use transform="matrix(0.04938271604938272,0,0,0.04938271604938272,62.17283950617284,0)" xlink:href="#au"/></g><g id="p"><use transform="matrix(0.04938271604938272,0,0,0.04938271604938272,0,0)" xlink:href="#ar"/><use transform="matrix(0.04938271604938272,0,0,0.04938271604938272,10.814814814814815,0)" xlink:href="#as"/></g><path fill="#333" d="M99-251c69 0 84 53 88 123 5 99-61 162-144 118-15-8-21-25-26-45l46-6c4 31 50 33 63 7 7-15 12-36 12-60-9 18-29 28-54 28-48 0-72-32-72-82 0-55 31-83 87-83zm-1 128c24 0 37-16 37-39 0-27-10-51-37-51-25 0-35 19-35 45 0 25 10 45 35 45" id="aD"/><path fill="#333" d="M23 0v-37h61v-169l-59 37v-38l62-41h46v211h57V0H23" id="aE"/><g id="q"><use transform="matrix(0.04938271604938272,0,0,0.04938271604938272,0,0)" xlink:href="#as"/><use transform="matrix(0.04938271604938272,0,0,0.04938271604938272,5.8765432098765435,0)" xlink:href="#aw"/><use transform="matrix(0.04938271604938272,0,0,0.04938271604938272,16.691358024691358,0)" xlink:href="#ax"/><use transform="matrix(0.04938271604938272,0,0,0.04938271604938272,22.567901234567902,0)" xlink:href="#ay"/><use transform="matrix(0.04938271604938272,0,0,0.04938271604938272,28.444444444444446,0)" xlink:href="#am"/><use transform="matrix(0.04938271604938272,0,0,0.04938271604938272,40.2962962962963,0)" xlink:href="#aD"/><use transform="matrix(0.04938271604938272,0,0,0.04938271604938272,50.17283950617284,0)" xlink:href="#aE"/></g><path d="M190-63c-7 42-38 67-86 67-59 0-84-38-90-98-12-110 154-137 174-36l-49 2c-2-19-15-32-35-32-30 0-35 28-38 64-6 74 65 87 74 30" id="aF"/><path d="M133-34C117-15 103 5 69 4 32 3 11-16 11-54c-1-60 55-63 116-61 1-26-3-47-28-47-18 1-26 9-28 27l-52-2c7-38 36-58 82-57s74 22 75 68l1 82c-1 14 12 18 25 15v27c-30 8-71 5-69-32zm-48 3c29 0 43-24 42-57-32 0-66-3-65 30 0 17 8 27 23 27" id="aG"/><path d="M135-150c-39-12-60 13-60 57V0H25l-1-190h47c2 13-1 29 3 40 6-28 27-53 61-41v41" id="aH"/><path d="M185-48c-13 30-37 53-82 52C43 2 14-33 14-96s30-98 90-98c62 0 83 45 84 108H66c0 31 8 55 39 56 18 0 30-7 34-22zm-45-69c5-46-57-63-70-21-2 6-4 13-4 21h74" id="aI"/><g id="r"><use transform="matrix(0.04938271604938272,0,0,0.04938271604938272,0,0)" xlink:href="#aF"/><use transform="matrix(0.04938271604938272,0,0,0.04938271604938272,9.876543209876544,0)" xlink:href="#aG"/><use transform="matrix(0.04938271604938272,0,0,0.04938271604938272,19.75308641975309,0)" xlink:href="#aH"/><use transform="matrix(0.04938271604938272,0,0,0.04938271604938272,26.666666666666668,0)" xlink:href="#aI"/><use transform="matrix(0.04938271604938272,0,0,0.04938271604938272,36.543209876543216,0)" xlink:href="#aI"/><use transform="matrix(0.04938271604938272,0,0,0.04938271604938272,46.41975308641976,0)" xlink:href="#aH"/></g><path d="M137-138c1-29-70-34-71-4 15 46 118 7 119 86 1 83-164 76-172 9l43-7c4 19 20 25 44 25 33 8 57-30 24-41C81-84 22-81 20-136c-2-80 154-74 161-7" id="aJ"/><path d="M115-3C79 11 28 4 28-45v-112H4v-33h27l15-45h31v45h36v33H77v99c-1 23 16 31 38 25v30" id="aK"/><path d="M220-157c-53 9-28 100-34 157h-49v-107c1-27-5-49-29-50C55-147 81-57 75 0H25l-1-190h47c2 12-1 28 3 38 10-53 101-56 108 0 13-22 24-43 59-42 82 1 51 116 57 194h-49v-107c-1-25-5-48-29-50" id="aL"/><path d="M135-194c87-1 58 113 63 194h-50c-7-57 23-157-34-157-59 0-34 97-39 157H25l-1-190h47c2 12-1 28 3 38 12-26 28-41 61-42" id="aM"/><g id="s"><use transform="matrix(0.04938271604938272,0,0,0.04938271604938272,0,0)" xlink:href="#aJ"/><use transform="matrix(0.04938271604938272,0,0,0.04938271604938272,9.876543209876544,0)" xlink:href="#aK"/><use transform="matrix(0.04938271604938272,0,0,0.04938271604938272,15.753086419753087,0)" xlink:href="#aG"/><use transform="matrix(0.04938271604938272,0,0,0.04938271604938272,25.629629629629633,0)" xlink:href="#aK"/><use transform="matrix(0.04938271604938272,0,0,0.04938271604938272,31.506172839506174,0)" xlink:href="#aI"/><use transform="matrix(0.04938271604938272,0,0,0.04938271604938272,41.38271604938272,0)" xlink:href="#aL"/><use transform="matrix(0.04938271604938272,0,0,0.04938271604938272,57.18518518518519,0)" xlink:href="#aI"/><use transform="matrix(0.04938271604938272,0,0,0.04938271604938272,67.06172839506173,0)" xlink:href="#aM"/><use transform="matrix(0.04938271604938272,0,0,0.04938271604938272,77.87654320987654,0)" xlink:href="#aK"/></g><path d="M121-226c-27-7-43 5-38 36h38v33H83V0H34v-157H6v-33h28c-9-59 32-81 87-68v32" id="aN"/><path d="M195-6C206 82 75 100 31 46c-4-6-6-13-8-21l49-6c3 16 16 24 34 25 40 0 42-37 40-79-11 22-30 35-61 35-53 0-70-43-70-97 0-56 18-96 73-97 30 0 46 14 59 34l2-30h47zm-90-29c32 0 41-27 41-63 0-35-9-62-40-62-32 0-39 29-40 63 0 36 9 62 39 62" id="aO"/><path d="M35-132v-50h50v50H35zM35 0v-49h50V0H35" id="aP"/><path d="M24-248c93 1 206-16 204 79-1 75-69 88-152 82V0H24v-248zm52 121c47 0 100 7 100-41 0-47-54-39-100-39v80" id="aQ"/><path d="M23 0v-37h61v-169l-59 37v-38l62-41h46v211h57V0H23" id="aR"/><path d="M115-159c48 0 72 30 72 78 0 54-30 85-83 85-64 0-91-50-91-122 0-98 58-163 141-120 15 8 21 24 27 44l-47 6c-5-31-48-31-61-4-7 14-11 33-11 60 9-17 28-27 53-27zM102-35c24 0 36-20 36-45s-11-43-37-43c-23 0-36 14-36 38 0 27 11 50 37 50" id="aS"/><path d="M139-81c0-46-55-55-73-27H18l9-140h149v37H72l-4 63c44-38 133-4 122 66C201 21 21 35 11-62l49-4c5 18 15 30 39 30 26 0 40-18 40-45" id="aT"/><g id="t"><use transform="matrix(0.04938271604938272,0,0,0.04938271604938272,0,0)" xlink:href="#aN"/><use transform="matrix(0.04938271604938272,0,0,0.04938271604938272,5.8765432098765435,0)" xlink:href="#aO"/><use transform="matrix(0.04938271604938272,0,0,0.04938271604938272,16.691358024691358,0)" xlink:href="#aK"/><use transform="matrix(0.04938271604938272,0,0,0.04938271604938272,22.567901234567902,0)" xlink:href="#aP"/><use transform="matrix(0.04938271604938272,0,0,0.04938271604938272,28.444444444444446,0)" xlink:href="#aQ"/><use transform="matrix(0.04938271604938272,0,0,0.04938271604938272,40.2962962962963,0)" xlink:href="#aR"/><use transform="matrix(0.04938271604938272,0,0,0.04938271604938272,50.17283950617284,0)" xlink:href="#aS"/><use transform="matrix(0.04938271604938272,0,0,0.04938271604938272,60.04938271604939,0)" xlink:href="#aT"/></g><g id="u"><use transform="matrix(0.07407407407407408,0,0,0.07407407407407408,0,0)" xlink:href="#S"/><use transform="matrix(0.07407407407407408,0,0,0.07407407407407408,19.185185185185187,0)" xlink:href="#T"/><use transform="matrix(0.07407407407407408,0,0,0.07407407407407408,30.962962962962965,0)" xlink:href="#Q"/><use transform="matrix(0.07407407407407408,0,0,0.07407407407407408,38.370370370370374,0)" xlink:href="#U"/><use transform="matrix(0.07407407407407408,0,0,0.07407407407407408,51.70370370370371,0)" xlink:href="#V"/><use transform="matrix(0.07407407407407408,0,0,0.07407407407407408,60.518518518518526,0)" xlink:href="#W"/><use transform="matrix(0.07407407407407408,0,0,0.07407407407407408,69.33333333333334,0)" xlink:href="#O"/><use transform="matrix(0.07407407407407408,0,0,0.07407407407407408,82.66666666666667,0)" xlink:href="#V"/><use transform="matrix(0.07407407407407408,0,0,0.07407407407407408,91.4814814814815,0)" xlink:href="#X"/><use transform="matrix(0.07407407407407408,0,0,0.07407407407407408,101.85185185185186,0)" xlink:href="#Y"/><use transform="matrix(0.07407407407407408,0,0,0.07407407407407408,113.62962962962965,0)" xlink:href="#R"/><use transform="matrix(0.07407407407407408,0,0,0.07407407407407408,126.96296296296299,0)" xlink:href="#P"/><use transform="matrix(0.07407407407407408,0,0,0.07407407407407408,138.74074074074076,0)" xlink:href="#Z"/><use transform="matrix(0.07407407407407408,0,0,0.07407407407407408,152.0740740740741,0)" xlink:href="#aa"/><use transform="matrix(0.07407407407407408,0,0,0.07407407407407408,165.40740740740748,0)" xlink:href="#P"/></g><g id="v"><use transform="matrix(0.07407407407407408,0,0,0.07407407407407408,0,0)" xlink:href="#N"/><use transform="matrix(0.07407407407407408,0,0,0.07407407407407408,19.185185185185187,0)" xlink:href="#P"/><use transform="matrix(0.07407407407407408,0,0,0.07407407407407408,30.962962962962965,0)" xlink:href="#X"/><use transform="matrix(0.07407407407407408,0,0,0.07407407407407408,41.333333333333336,0)" xlink:href="#P"/><use transform="matrix(0.07407407407407408,0,0,0.07407407407407408,53.11111111111112,0)" xlink:href="#ai"/><use transform="matrix(0.07407407407407408,0,0,0.07407407407407408,60.51851851851852,0)" xlink:href="#ai"/><use transform="matrix(0.07407407407407408,0,0,0.07407407407407408,67.92592592592592,0)" xlink:href="#X"/><use transform="matrix(0.07407407407407408,0,0,0.07407407407407408,78.29629629629629,0)" xlink:href="#Y"/><use transform="matrix(0.07407407407407408,0,0,0.07407407407407408,90.07407407407408,0)" xlink:href="#R"/><use transform="matrix(0.07407407407407408,0,0,0.07407407407407408,103.40740740740742,0)" xlink:href="#T"/><use transform="matrix(0.07407407407407408,0,0,0.07407407407407408,115.18518518518519,0)" xlink:href="#W"/><use transform="matrix(0.07407407407407408,0,0,0.07407407407407408,124,0)" xlink:href="#Q"/></g><path d="M10 0v-8l90-143c-23 2-54-4-70 6-5 8 1 26-14 24v-44h122v8L47-14c29-2 65 3 86-8l9-35h8l-5 57H10" id="aU"/><g id="w"><use transform="matrix(0.07407407407407408,0,0,0.07407407407407408,0,0)" xlink:href="#aU"/><use transform="matrix(0.07407407407407408,0,0,0.07407407407407408,11.777777777777779,0)" xlink:href="#U"/></g><g id="x"><use transform="matrix(0.07407407407407408,0,0,0.07407407407407408,0,0)" xlink:href="#ak"/><use transform="matrix(0.07407407407407408,0,0,0.07407407407407408,10.370370370370372,0)" xlink:href="#P"/><use transform="matrix(0.07407407407407408,0,0,0.07407407407407408,22.148148148148152,0)" xlink:href="#Z"/><use transform="matrix(0.07407407407407408,0,0,0.07407407407407408,35.48148148148149,0)" xlink:href="#T"/></g><path d="M25-224v-37h50v37H25zM25 0v-190h50V0H25" id="aV"/><g id="y"><use transform="matrix(0.04938271604938272,0,0,0.04938271604938272,0,0)" xlink:href="#aV"/><use transform="matrix(0.04938271604938272,0,0,0.04938271604938272,4.938271604938272,0)" xlink:href="#aJ"/></g><use transform="matrix(0.04938271604938272,0,0,0.04938271604938272,0,0)" xlink:href="#aG" id="z"/><path d="M182-182c0 78-84 86-111 141h115V0H12c-6-101 99-100 120-180 1-22-12-31-33-32-23 0-32 14-35 34l-49-3c5-45 32-70 84-70 51 0 83 22 83 69" id="aW"/><g id="A"><use transform="matrix(0.04938271604938272,0,0,0.04938271604938272,0,0)" xlink:href="#aN"/><use transform="matrix(0.04938271604938272,0,0,0.04938271604938272,5.8765432098765435,0)" xlink:href="#aO"/><use transform="matrix(0.04938271604938272,0,0,0.04938271604938272,16.691358024691358,0)" xlink:href="#aK"/><use transform="matrix(0.04938271604938272,0,0,0.04938271604938272,22.567901234567902,0)" xlink:href="#aP"/><use transform="matrix(0.04938271604938272,0,0,0.04938271604938272,28.444444444444446,0)" xlink:href="#aQ"/><use transform="matrix(0.04938271604938272,0,0,0.04938271604938272,40.2962962962963,0)" xlink:href="#aW"/></g><path d="M135-194c52 0 70 43 70 98 0 56-19 99-73 100-30 1-46-15-58-35L72 0H24l1-261h50v104c11-23 29-37 60-37zM114-30c31 0 40-27 40-66 0-37-7-63-39-63s-41 28-41 65c0 36 8 64 40 64" id="aX"/><g id="B"><use transform="matrix(0.04938271604938272,0,0,0.04938271604938272,0,0)" xlink:href="#aL"/><use transform="matrix(0.04938271604938272,0,0,0.04938271604938272,15.80246913580247,0)" xlink:href="#aI"/><use transform="matrix(0.04938271604938272,0,0,0.04938271604938272,25.679012345679016,0)" xlink:href="#aL"/><use transform="matrix(0.04938271604938272,0,0,0.04938271604938272,41.48148148148148,0)" xlink:href="#aX"/><use transform="matrix(0.04938271604938272,0,0,0.04938271604938272,52.2962962962963,0)" xlink:href="#aI"/><use transform="matrix(0.04938271604938272,0,0,0.04938271604938272,62.17283950617284,0)" xlink:href="#aH"/></g><path d="M110-194c64 0 96 36 96 99 0 64-35 99-97 99-61 0-95-36-95-99 0-62 34-99 96-99zm-1 164c35 0 45-28 45-65 0-40-10-65-43-65-34 0-45 26-45 65 0 36 10 65 43 65" id="aY"/><g id="C"><use transform="matrix(0.04938271604938272,0,0,0.04938271604938272,0,0)" xlink:href="#aY"/><use transform="matrix(0.04938271604938272,0,0,0.04938271604938272,10.814814814814815,0)" xlink:href="#aN"/></g><path d="M99-251c69 0 84 53 88 123 5 99-61 162-144 118-15-8-21-25-26-45l46-6c4 31 50 33 63 7 7-15 12-36 12-60-9 18-29 28-54 28-48 0-72-32-72-82 0-55 31-83 87-83zm-1 128c24 0 37-16 37-39 0-27-10-51-37-51-25 0-35 19-35 45 0 25 10 45 35 45" id="aZ"/><g id="D"><use transform="matrix(0.04938271604938272,0,0,0.04938271604938272,0,0)" xlink:href="#aN"/><use transform="matrix(0.04938271604938272,0,0,0.04938271604938272,5.8765432098765435,0)" xlink:href="#aO"/><use transform="matrix(0.04938271604938272,0,0,0.04938271604938272,16.691358024691358,0)" xlink:href="#aK"/><use transform="matrix(0.04938271604938272,0,0,0.04938271604938272,22.567901234567902,0)" xlink:href="#aP"/><use transform="matrix(0.04938271604938272,0,0,0.04938271604938272,28.444444444444446,0)" xlink:href="#aQ"/><use transform="matrix(0.04938271604938272,0,0,0.04938271604938272,40.2962962962963,0)" xlink:href="#aZ"/><use transform="matrix(0.04938271604938272,0,0,0.04938271604938272,50.17283950617284,0)" xlink:href="#aR"/></g><path d="M75-17c87 13 134-18 134-103 0-78-51-106-134-100v203zm171-102C246 5 139 7 10 0v-9l31-5v-208l-31-4v-10h107c82 0 129 35 129 117" id="ba"/><g id="E"><use transform="matrix(0.06172839506172839,0,0,0.06172839506172839,0,0)" xlink:href="#ba"/><use transform="matrix(0.06172839506172839,0,0,0.06172839506172839,15.987654320987653,0)" xlink:href="#ac"/><use transform="matrix(0.06172839506172839,0,0,0.06172839506172839,22.160493827160494,0)" xlink:href="#V"/><use transform="matrix(0.06172839506172839,0,0,0.06172839506172839,29.50617283950617,0)" xlink:href="#P"/><use transform="matrix(0.06172839506172839,0,0,0.06172839506172839,39.32098765432099,0)" xlink:href="#Y"/><use transform="matrix(0.06172839506172839,0,0,0.06172839506172839,49.135802469135804,0)" xlink:href="#Q"/><use transform="matrix(0.06172839506172839,0,0,0.06172839506172839,55.308641975308646,0)" xlink:href="#O"/><use transform="matrix(0.06172839506172839,0,0,0.06172839506172839,66.41975308641976,0)" xlink:href="#V"/></g><g id="F"><use transform="matrix(0.07407407407407408,0,0,0.07407407407407408,0,0)" xlink:href="#ak"/><use transform="matrix(0.07407407407407408,0,0,0.07407407407407408,10.370370370370372,0)" xlink:href="#O"/><use transform="matrix(0.07407407407407408,0,0,0.07407407407407408,23.70370370370371,0)" xlink:href="#R"/><use transform="matrix(0.07407407407407408,0,0,0.07407407407407408,37.037037037037045,0)" xlink:href="#T"/><use transform="matrix(0.07407407407407408,0,0,0.07407407407407408,48.814814814814824,0)" xlink:href="#Z"/><use transform="matrix(0.07407407407407408,0,0,0.07407407407407408,62.14814814814816,0)" xlink:href="#Z"/></g><path d="M53-14c58 12 82-15 82-73 0-52-35-77-82-58v131zM89 4C64 4 42-2 24-9v-229l-24-4v-8h53l-1 94c48-33 114-4 114 69 0 57-23 91-77 91" id="bb"/><g id="G"><use transform="matrix(0.07407407407407408,0,0,0.07407407407407408,0,0)" xlink:href="#ak"/><use transform="matrix(0.07407407407407408,0,0,0.07407407407407408,10.370370370370372,0)" xlink:href="#T"/><use transform="matrix(0.07407407407407408,0,0,0.07407407407407408,22.148148148148152,0)" xlink:href="#Y"/><use transform="matrix(0.07407407407407408,0,0,0.07407407407407408,33.92592592592593,0)" xlink:href="#O"/><use transform="matrix(0.07407407407407408,0,0,0.07407407407407408,47.25925925925927,0)" xlink:href="#bb"/></g><path d="M75-131c50 2 93 3 93-48 0-46-48-41-93-41v89zm0 115c55 4 111 6 111-51 0-53-58-48-111-48v99zm148-52C223 24 102-3 10 0v-9l31-5v-208l-31-4v-10c77 6 193-24 194 56 0 33-20 48-48 54 36 5 67 20 67 58" id="bc"/><path d="M90-170c52 0 76 32 76 87 0 54-24 87-77 87-51 0-75-34-75-87 0-54 24-87 76-87zM89-10c39 0 46-35 46-73 0-39-7-73-46-73-39 1-44 34-44 73s6 72 44 73zm32-217c10 0 18 7 18 17 0 11-7 18-18 18-9 0-18-7-17-18 0-10 7-17 17-17zm-62 0c10 0 17 7 17 17s-7 18-17 18-19-7-18-18c0-11 8-17 18-17" id="bd"/><g id="H"><use transform="matrix(0.07407407407407408,0,0,0.07407407407407408,0,0)" xlink:href="#bc"/><use transform="matrix(0.07407407407407408,0,0,0.07407407407407408,17.77777777777778,0)" xlink:href="#bd"/><use transform="matrix(0.07407407407407408,0,0,0.07407407407407408,31.111111111111114,0)" xlink:href="#bb"/><use transform="matrix(0.07407407407407408,0,0,0.07407407407407408,44.44444444444445,0)" xlink:href="#P"/><use transform="matrix(0.07407407407407408,0,0,0.07407407407407408,56.22222222222223,0)" xlink:href="#V"/></g><path d="M10 0v-9l31-5v-208l-31-4v-10h95v10l-30 4v93h110v-93l-30-4v-10h94v10l-30 4v208l30 5v9h-94v-9l30-5v-99H75v99l30 5v9H10" id="be"/><g id="I"><use transform="matrix(0.06172839506172839,0,0,0.06172839506172839,0,0)" xlink:href="#be"/><use transform="matrix(0.06172839506172839,0,0,0.06172839506172839,15.987654320987653,0)" xlink:href="#P"/><use transform="matrix(0.06172839506172839,0,0,0.06172839506172839,25.80246913580247,0)" xlink:href="#T"/><use transform="matrix(0.06172839506172839,0,0,0.06172839506172839,35.617283950617285,0)" xlink:href="#aa"/></g><g id="J"><use transform="matrix(0.06172839506172839,0,0,0.06172839506172839,0,0)" xlink:href="#O"/><use transform="matrix(0.06172839506172839,0,0,0.06172839506172839,11.11111111111111,0)" xlink:href="#W"/></g><g id="K"><use transform="matrix(0.06172839506172839,0,0,0.06172839506172839,0,0)" xlink:href="#ad"/><use transform="matrix(0.06172839506172839,0,0,0.06172839506172839,12.345679012345679,0)" xlink:href="#Q"/><use transform="matrix(0.06172839506172839,0,0,0.06172839506172839,18.51851851851852,0)" xlink:href="#T"/><use transform="matrix(0.06172839506172839,0,0,0.06172839506172839,28.333333333333336,0)" xlink:href="#Q"/><use transform="matrix(0.06172839506172839,0,0,0.06172839506172839,34.50617283950618,0)" xlink:href="#P"/></g><path d="M10-9l31-5v-208l-31-4v-10h177v57h-11l-6-38c-28-4-63-3-95-3v92h63l6-28h11v73h-11l-6-29H75v96l105-3 10-43h12l-3 62H10v-9" id="bf"/><path d="M156-12c7 3 23-1 20 12h-75v-8l22-4-38-58-45 58 23 4v8H3v-8l19-3 55-71-48-71c-7-3-23 1-20-12h75v8l-22 4 32 48 37-48-23-4v-8h59v8l-19 3-46 60" id="bg"/><path d="M166-85c3 67-44 102-111 85l1 64 29 4v9H6v-9l21-4v-217c-7-3-22 1-19-12h46l1 9c11-8 26-14 45-14 47 2 64 36 66 85zM56-13c53 14 83-14 78-72 7-53-33-79-78-60v132" id="bh"/><g id="L"><use transform="matrix(0.06172839506172839,0,0,0.06172839506172839,0,0)" xlink:href="#bf"/><use transform="matrix(0.06172839506172839,0,0,0.06172839506172839,13.518518518518517,0)" xlink:href="#bg"/><use transform="matrix(0.06172839506172839,0,0,0.06172839506172839,24.629629629629626,0)" xlink:href="#bh"/><use transform="matrix(0.06172839506172839,0,0,0.06172839506172839,35.74074074074073,0)" xlink:href="#ai"/><use transform="matrix(0.06172839506172839,0,0,0.06172839506172839,41.913580246913575,0)" xlink:href="#O"/><use transform="matrix(0.06172839506172839,0,0,0.06172839506172839,53.02469135802468,0)" xlink:href="#V"/><use transform="matrix(0.06172839506172839,0,0,0.06172839506172839,60.37037037037036,0)" xlink:href="#P"/><use transform="matrix(0.06172839506172839,0,0,0.06172839506172839,70.18518518518518,0)" xlink:href="#V"/></g><path d="M75-108c48 3 76-12 76-58s-28-57-76-54v112zm111-58c-1 60-46 78-111 74v78l37 5v9H13v-9l28-5v-208l-31-4v-10c81 1 178-14 176 70" id="bi"/><g id="M"><use transform="matrix(0.06172839506172839,0,0,0.06172839506172839,0,0)" xlink:href="#bi"/><use transform="matrix(0.06172839506172839,0,0,0.06172839506172839,12.345679012345679,0)" xlink:href="#V"/><use transform="matrix(0.06172839506172839,0,0,0.06172839506172839,19.691358024691358,0)" xlink:href="#O"/><use transform="matrix(0.06172839506172839,0,0,0.06172839506172839,30.80246913580247,0)" xlink:href="#W"/><use transform="matrix(0.06172839506172839,0,0,0.06172839506172839,38.148148148148145,0)" xlink:href="#P"/><use transform="matrix(0.06172839506172839,0,0,0.06172839506172839,47.96296296296296,0)" xlink:href="#X"/><use transform="matrix(0.06172839506172839,0,0,0.06172839506172839,56.60493827160494,0)" xlink:href="#X"/><use transform="matrix(0.06172839506172839,0,0,0.06172839506172839,65.24691358024691,0)" xlink:href="#O"/><use transform="matrix(0.06172839506172839,0,0,0.06172839506172839,76.35802469135803,0)" xlink:href="#V"/></g></defs></g></svg>